<?xml version="1.0" encoding="utf-8"?>
<!-- Generator: Adobe Illustrator 16.0.0, SVG Export Plug-In . SVG Version: 6.00 Build 0)  -->
<!DOCTYPE svg PUBLIC "-//W3C//DTD SVG 1.1//EN" "http://www.w3.org/Graphics/SVG/1.1/DTD/svg11.dtd">
<svg version="1.1" id="Layer_1" xmlns="http://www.w3.org/2000/svg" xmlns:xlink="http://www.w3.org/1999/xlink" x="0px" y="0px"
	 width="15.918px" height="15.372px" viewBox="0 0 15.918 15.372" enable-background="new 0 0 15.918 15.372" xml:space="preserve">
<g>
	<path fill="#FFFFFF" d="M14.36,8.721c0,1.445,0,2.888,0,4.332c-0.038,0.115-0.062,0.234-0.114,0.343
		c-0.231,0.48-0.628,0.691-1.151,0.69c-2.917,0-5.834,0.001-8.752-0.003c-0.113,0-0.192,0.027-0.268,0.118
		c-0.165,0.192-0.382,0.316-0.623,0.395c-0.077,0.026-0.156,0.042-0.233,0.063c-0.136,0-0.272,0-0.409,0
		c-0.015-0.007-0.03-0.02-0.046-0.022c-0.619-0.13-1.002-0.508-1.165-1.115c-0.016-0.057-0.028-0.112-0.041-0.169
		c0-1.653,0-3.306,0-4.958C1.567,8.372,1.58,8.347,1.584,8.322c0.113-0.574,0.444-0.972,1-1.147c0.55-0.173,1.054-0.046,1.463,0.365
		c0.111,0.112,0.21,0.157,0.361,0.149c0.21-0.008,0.422-0.001,0.638-0.001c0-0.08,0-0.139,0-0.199c0-2.114,0.001-4.229-0.003-6.344
		c0-0.181,0.038-0.327,0.192-0.432c2.396,0,4.794,0,7.19,0c0.153,0.104,0.191,0.251,0.191,0.432
		c-0.004,2.123-0.003,4.247-0.003,6.372c0,0.052,0,0.106,0,0.171c0.204,0,0.393-0.001,0.583,0c0.347,0.001,0.629,0.141,0.864,0.394
		C14.23,8.263,14.299,8.491,14.36,8.721z M4.891,13.255c0.039,0.002,0.071,0.005,0.104,0.005c2.609,0,5.219,0,7.83,0
		c0.299,0,0.527-0.227,0.527-0.523c0-1.237,0-2.475,0-3.711c0-0.27-0.188-0.496-0.458-0.512c-0.317-0.017-0.637-0.008-0.953-0.008
		c-2.056,0-4.112,0-6.167,0C5.718,8.506,5.666,8.5,5.612,8.5c-0.239,0-0.478,0-0.722,0C4.891,10.089,4.891,11.665,4.891,13.255z
		 M12.011,7.684c0-2.135,0-4.256,0-6.382c-2.126,0-4.243,0-6.362,0c0,2.132,0,4.253,0,6.382C7.772,7.684,9.886,7.684,12.011,7.684z
		 M3.499,10.886c0-0.444,0.004-0.889-0.002-1.334C3.493,9.295,3.268,9.091,3.013,9.095C2.752,9.099,2.535,9.314,2.535,9.571
		c0,0.876,0,1.75,0,2.625c0,0.257,0.218,0.469,0.48,0.473c0.253,0.004,0.478-0.199,0.481-0.451
		C3.502,11.774,3.497,11.33,3.499,10.886z"/>
	<path fill-rule="evenodd" clip-rule="evenodd" fill="#FFFFFF" d="M9.123,9.656c1.041,0,2.08,0,3.118,0
		c0.267,0,0.373,0.104,0.373,0.366c0.002,0.531,0.002,1.063,0,1.593c0,0.257-0.108,0.364-0.364,0.364c-2.086,0-4.173,0-6.26,0
		c-0.254,0-0.352-0.1-0.352-0.354c-0.001-0.535-0.001-1.071,0-1.606c0-0.268,0.093-0.362,0.356-0.362
		C7.037,9.656,8.08,9.656,9.123,9.656z"/>
	<path fill-rule="evenodd" clip-rule="evenodd" fill="#FFFFFF" d="M8.841,4.775c0.64,0,1.28-0.001,1.919,0.001
		c0.067,0,0.137,0.004,0.2,0.025c0.125,0.041,0.188,0.135,0.191,0.267c0.002,0.132-0.064,0.225-0.186,0.273
		c-0.045,0.019-0.097,0.026-0.146,0.026c-1.324,0.001-2.651,0.001-3.976,0c-0.181,0-0.299-0.085-0.33-0.227
		C6.471,4.943,6.604,4.78,6.826,4.776C7.062,4.77,7.298,4.775,7.534,4.775C7.97,4.775,8.405,4.775,8.841,4.775z"/>
	<path fill-rule="evenodd" clip-rule="evenodd" fill="#FFFFFF" d="M8.831,3.036c-0.672,0-1.343,0.001-2.015-0.001
		c-0.162,0-0.273-0.085-0.302-0.22c-0.029-0.14,0.03-0.271,0.157-0.327c0.044-0.02,0.097-0.029,0.145-0.029
		c1.343-0.001,2.686-0.001,4.029,0c0.187,0,0.308,0.117,0.308,0.288c0.002,0.173-0.117,0.288-0.308,0.288
		C10.174,3.037,9.502,3.036,8.831,3.036z"/>
	<path fill-rule="evenodd" clip-rule="evenodd" fill="#FFFFFF" d="M8.831,3.621c0.667,0,1.333,0,2,0
		c0.217,0.001,0.344,0.133,0.319,0.328c-0.017,0.151-0.135,0.249-0.304,0.25c-0.453,0.001-0.908,0-1.362,0c-0.884,0-1.77,0-2.654,0
		c-0.238,0-0.387-0.193-0.306-0.395C6.579,3.67,6.686,3.618,6.828,3.62C7.496,3.624,8.163,3.621,8.831,3.621z"/>
	<path fill-rule="evenodd" clip-rule="evenodd" fill="#FFFFFF" d="M8.829,6.522c-0.671,0-1.343,0-2.015-0.001
		c-0.161,0-0.271-0.085-0.3-0.22C6.485,6.16,6.545,6.029,6.672,5.974c0.043-0.021,0.096-0.029,0.144-0.029
		c1.343-0.001,2.688-0.001,4.03-0.001c0.186,0,0.307,0.118,0.307,0.291c0,0.172-0.119,0.287-0.308,0.287
		C10.174,6.524,9.502,6.522,8.829,6.522z"/>
</g>
</svg>
