<?xml version="1.0" encoding="utf-8"?>
<!-- Generator: Adobe Illustrator 16.0.0, SVG Export Plug-In . SVG Version: 6.00 Build 0)  -->
<!DOCTYPE svg PUBLIC "-//W3C//DTD SVG 1.1//EN" "http://www.w3.org/Graphics/SVG/1.1/DTD/svg11.dtd">
<svg version="1.1" id="Layer_1" xmlns="http://www.w3.org/2000/svg" xmlns:xlink="http://www.w3.org/1999/xlink" x="0px" y="0px"
	 width="18.836px" height="15.372px" viewBox="0 0 18.836 15.372" enable-background="new 0 0 18.836 15.372" xml:space="preserve">
<g id="f1XxkC.tif_2_">
	<g>
		<path fill-rule="evenodd" clip-rule="evenodd" fill="#FFFFFF" d="M7.035,15.052c0.006-1.051,0.017-2.102,0.018-3.152
			c0.002-2.088,0-4.176-0.001-6.266c0-0.168,0-0.336,0-0.512c1.091,0,2.187,0,3.297,0c0,0.449,0,0.895,0,1.377
			c0.092-0.127,0.159-0.223,0.231-0.318c0.604-0.793,1.404-1.217,2.396-1.287c0.801-0.059,1.568,0.059,2.275,0.457
			c0.847,0.477,1.344,1.227,1.621,2.137c0.173,0.562,0.245,1.143,0.247,1.73c0.001,1.92,0,3.842,0,5.762
			c0,0.023-0.002,0.047-0.003,0.072c-1.099,0-2.198,0-3.297,0c-0.001-0.045-0.003-0.088-0.003-0.133c0-1.721,0.003-3.439-0.003-5.16
			c0-0.271-0.026-0.545-0.068-0.814c-0.057-0.363-0.182-0.709-0.438-0.984c-0.425-0.461-0.968-0.543-1.547-0.424
			c-0.797,0.162-1.401,0.904-1.405,1.729c-0.01,1.918-0.005,3.834-0.005,5.75c0,0.014,0.003,0.025,0.005,0.037
			C9.25,15.052,8.142,15.052,7.035,15.052z"/>
		<path fill-rule="evenodd" clip-rule="evenodd" fill="#FFFFFF" d="M1.91,15.052c0-0.121,0.002-0.24,0.002-0.361
			c0-3.135,0-6.27,0-9.404c0-0.053,0-0.104,0-0.164c1.104,0,2.198,0,3.311,0c0,0.045,0,0.088,0,0.131c0,3.223,0,6.447-0.001,9.67
			c0,0.043-0.011,0.086-0.015,0.129C4.108,15.052,3.008,15.052,1.91,15.052z"/>
		<path fill-rule="evenodd" clip-rule="evenodd" fill="#FFFFFF" d="M3.492,0.321c0.71,0.014,1.247,0.193,1.617,0.709
			c0.674,0.939,0.312,2.4-1.064,2.684C3.463,3.833,2.897,3.778,2.404,3.415c-0.578-0.424-0.779-1.02-0.652-1.707
			c0.126-0.695,0.573-1.119,1.245-1.305C3.188,0.349,3.391,0.337,3.492,0.321z"/>
	</g>
</g>
</svg>
