<?xml version="1.0" encoding="utf-8"?>
<!-- Generator: Adobe Illustrator 16.0.0, SVG Export Plug-In . SVG Version: 6.00 Build 0)  -->
<!DOCTYPE svg PUBLIC "-//W3C//DTD SVG 1.1//EN" "http://www.w3.org/Graphics/SVG/1.1/DTD/svg11.dtd">
<svg version="1.1" id="Layer_1" xmlns="http://www.w3.org/2000/svg" xmlns:xlink="http://www.w3.org/1999/xlink" x="0px" y="0px"
	 width="15.918px" height="15.372px" viewBox="0 0 15.918 15.372" enable-background="new 0 0 15.918 15.372" xml:space="preserve">
<g id="SojSeQ.tif">
	<g>
		<path fill="#FFFFFF" d="M7.674,0.269c0.198,0,0.396,0,0.594,0c0.016,0.003,0.031,0.008,0.048,0.01
			C8.473,0.291,8.631,0.301,8.79,0.316c0.406,0.041,0.806,0.121,1.199,0.232c1.15,0.328,2.166,0.898,3.041,1.717
			c1.02,0.955,1.719,2.108,2.094,3.457c0.133,0.484,0.223,0.979,0.242,1.482c0,0.02,0.008,0.041,0.01,0.061c0,0.279,0,0.561,0,0.84
			c-0.002,0.023-0.008,0.045-0.01,0.066c-0.002,0.049,0,0.1-0.006,0.148c-0.023,0.258-0.057,0.514-0.105,0.77
			c-0.121,0.639-0.324,1.25-0.607,1.834c-0.461,0.947-1.096,1.76-1.898,2.438c-0.775,0.654-1.648,1.129-2.619,1.426
			c-0.556,0.17-1.126,0.271-1.708,0.305c-0.018,0.002-0.035,0.008-0.054,0.012c-0.268,0-0.536,0-0.804,0
			c-0.016-0.004-0.031-0.01-0.047-0.012c-0.06-0.004-0.119-0.008-0.179-0.012c-0.37-0.029-0.735-0.09-1.096-0.176
			c-0.825-0.197-1.593-0.525-2.304-0.986c-0.84-0.545-1.542-1.232-2.106-2.061c-0.52-0.762-0.883-1.592-1.091-2.49
			C0.647,8.96,0.587,8.55,0.564,8.134C0.561,8.083,0.549,8.033,0.542,7.982c0-0.193,0-0.387,0-0.58
			C0.549,7.351,0.561,7.3,0.564,7.25C0.581,6.935,0.62,6.623,0.678,6.312C0.777,5.783,0.932,5.27,1.144,4.774
			c0.373-0.869,0.893-1.64,1.559-2.311c0.607-0.613,1.301-1.105,2.08-1.477C5.677,0.562,6.62,0.328,7.608,0.278
			C7.63,0.277,7.653,0.271,7.674,0.269z M7.965,13.677c3.277,0.006,5.986-2.645,5.992-5.981c0.004-3.311-2.67-5.994-5.982-5.996
			C4.636,1.697,1.981,4.404,1.979,7.684C1.978,10.993,4.656,13.673,7.965,13.677z"/>
		<path fill-rule="evenodd" clip-rule="evenodd" fill="#FFFFFF" d="M10.783,3.676c0.197-0.008,0.354,0.073,0.475,0.223
			c0.09,0.113,0.176,0.229,0.262,0.345c0.125,0.171,0.248,0.345,0.346,0.533c0.035,0.067,0.064,0.138,0.092,0.208
			c0.041,0.109,0.031,0.217-0.029,0.315c-0.033,0.054-0.07,0.107-0.113,0.153c-0.369,0.404-0.75,0.793-1.143,1.174
			c-0.064,0.064-0.137,0.117-0.213,0.168c-0.109,0.074-0.227,0.07-0.336-0.006c-0.129-0.088-0.255-0.18-0.382-0.271
			C9.651,6.453,9.563,6.384,9.472,6.32c-0.034-0.025-0.073-0.045-0.11-0.068C9.193,6.148,9.021,6.162,8.85,6.248
			C8.8,6.271,8.754,6.304,8.709,6.335C8.519,6.476,8.343,6.636,8.171,6.8C7.761,7.193,7.36,7.595,6.969,8.009
			C6.835,8.152,6.71,8.302,6.593,8.46C6.515,8.566,6.466,8.685,6.46,8.818C6.458,8.884,6.468,8.945,6.494,9.005
			C6.542,9.115,6.607,9.21,6.678,9.304C6.803,9.47,6.934,9.632,7.046,9.808c0.108,0.17,0.109,0.264-0.008,0.43
			c-0.041,0.057-0.086,0.109-0.135,0.16c-0.38,0.387-0.766,0.768-1.166,1.133c-0.051,0.047-0.109,0.086-0.169,0.121
			c-0.094,0.057-0.194,0.062-0.298,0.029c-0.152-0.051-0.291-0.129-0.422-0.219c-0.213-0.146-0.422-0.301-0.632-0.453
			c-0.025-0.018-0.048-0.039-0.07-0.061c-0.158-0.141-0.21-0.318-0.188-0.523c0.025-0.229,0.099-0.441,0.199-0.646
			c0.159-0.322,0.343-0.633,0.532-0.939c0.275-0.445,0.572-0.877,0.916-1.271c0.203-0.236,0.41-0.469,0.627-0.691
			c0.357-0.365,0.721-0.725,1.088-1.08C7.908,5.23,8.555,4.744,9.255,4.327c0.284-0.17,0.57-0.337,0.872-0.479
			c0.168-0.079,0.344-0.134,0.527-0.162C10.697,3.68,10.74,3.679,10.783,3.676z"/>
	</g>
</g>
</svg>
