<?xml version="1.0" encoding="utf-8"?>
<!-- Generator: Adobe Illustrator 16.0.0, SVG Export Plug-In . SVG Version: 6.00 Build 0)  -->
<!DOCTYPE svg PUBLIC "-//W3C//DTD SVG 1.1//EN" "http://www.w3.org/Graphics/SVG/1.1/DTD/svg11.dtd">
<svg version="1.1" id="Layer_1" xmlns="http://www.w3.org/2000/svg" xmlns:xlink="http://www.w3.org/1999/xlink" x="0px" y="0px"
	 width="15.918px" height="15.372px" viewBox="0 0 15.918 15.372" enable-background="new 0 0 15.918 15.372" xml:space="preserve">
<g id="ZjqRND.tif">
	<g>
		<path fill="#FFFFFF" d="M7.325,0.294c0.406,0,0.812,0,1.219,0c0.103,0.019,0.205,0.039,0.307,0.059
			c2.389,0.471,3.961,1.866,4.716,4.175c0.114,0.353,0.167,0.723,0.248,1.085c0,0.405,0,0.812,0,1.218
			c-0.017,0.063-0.041,0.125-0.049,0.187c-0.154,1.194-0.63,2.246-1.418,3.149c-0.947,1.083-1.916,2.146-2.87,3.222
			c-0.495,0.559-0.981,1.125-1.471,1.689c-0.015,0-0.031,0-0.048,0c-1.426-1.594-2.848-3.191-4.278-4.781
			C3.064,9.609,2.604,8.833,2.352,7.943c-0.104-0.363-0.167-0.74-0.249-1.112c0-0.406,0-0.812,0-1.218
			c0.032-0.149,0.067-0.297,0.094-0.448C2.604,2.828,4.37,0.968,6.692,0.433C6.903,0.385,7.114,0.34,7.325,0.294z M7.963,12.629
			c0.061-0.07,0.102-0.119,0.145-0.167c0.977-1.087,1.945-2.185,2.936-3.26c0.969-1.053,1.326-2.281,1.117-3.68
			c-0.37-2.495-2.883-4.15-5.309-3.465C3.577,2.984,2.76,6.966,4.808,9.081c0.186,0.192,0.355,0.401,0.533,0.603
			C6.204,10.653,7.068,11.624,7.963,12.629z"/>
		<path fill-rule="evenodd" clip-rule="evenodd" fill="#FFFFFF" d="M7.927,4.229c1.089-0.024,1.992,0.861,2.02,1.98
			c0.025,1.06-0.855,2.014-1.884,2.038C6.909,8.272,5.995,7.41,5.971,6.27C5.947,5.17,6.827,4.253,7.927,4.229z"/>
	</g>
</g>
</svg>
