<?xml version="1.0" encoding="utf-8"?>
<!-- Generator: Adobe Illustrator 16.0.0, SVG Export Plug-In . SVG Version: 6.00 Build 0)  -->
<!DOCTYPE svg PUBLIC "-//W3C//DTD SVG 1.1//EN" "http://www.w3.org/Graphics/SVG/1.1/DTD/svg11.dtd">
<svg version="1.1" id="Layer_1" xmlns="http://www.w3.org/2000/svg" xmlns:xlink="http://www.w3.org/1999/xlink" x="0px" y="0px"
	 width="18.836px" height="15.372px" viewBox="0 0 18.836 15.372" enable-background="new 0 0 18.836 15.372" xml:space="preserve">
<g id="Ruoiao.tif_2_">
	<g>
		<path fill="#FFFFFF" d="M7.819,15.051c0.001-0.357,0.003-0.713,0.003-1.07c0-2.039,0-4.079,0-6.117c0-0.055,0-0.107,0-0.175
			c-0.615,0-1.221,0-1.834,0C5.984,7.637,5.981,7.6,5.981,7.562c-0.001-0.761,0-1.521-0.003-2.282c0-0.103,0.023-0.136,0.131-0.134
			c0.529,0.005,1.058,0,1.586,0.004c0.098,0,0.127-0.026,0.129-0.126c0.003-0.683,0-1.364,0.023-2.046
			C7.865,2.475,7.969,1.984,8.203,1.53c0.249-0.482,0.64-0.804,1.146-0.985c0.395-0.144,0.803-0.211,1.221-0.217
			c0.752-0.011,1.506-0.004,2.271-0.004c0.002,0.04,0.006,0.078,0.006,0.115c0,0.765,0,1.529,0.004,2.293
			c0,0.108-0.035,0.13-0.136,0.129c-0.419-0.002-0.838-0.002-1.258,0.006c-0.14,0.003-0.283,0.022-0.419,0.055
			c-0.26,0.064-0.432,0.281-0.439,0.57c-0.015,0.521-0.015,1.042-0.024,1.563c-0.002,0.101,0.058,0.092,0.122,0.092
			c0.67,0,1.342,0,2.012,0c0.045,0,0.09,0,0.15,0c-0.09,0.854-0.178,1.69-0.268,2.535c-0.672,0-1.333,0-2.013,0
			c0,0.059,0,0.108,0,0.157c0,2.356-0.002,4.712-0.003,7.07c0,0.047-0.003,0.094-0.003,0.141
			C9.654,15.051,8.736,15.051,7.819,15.051z"/>
	</g>
</g>
</svg>
