<?xml version="1.0" encoding="utf-8"?>
<!-- Generator: Adobe Illustrator 16.0.0, SVG Export Plug-In . SVG Version: 6.00 Build 0)  -->
<!DOCTYPE svg PUBLIC "-//W3C//DTD SVG 1.1//EN" "http://www.w3.org/Graphics/SVG/1.1/DTD/svg11.dtd">
<svg version="1.1" id="Layer_1" xmlns="http://www.w3.org/2000/svg" xmlns:xlink="http://www.w3.org/1999/xlink" x="0px" y="0px"
	 width="96.289px" height="96.281px" viewBox="0 0 96.289 96.281" enable-background="new 0 0 96.289 96.281" xml:space="preserve">
<g id="_x31_ywuIA.tif">
	<g>
		<path fill="#FFFFFF" d="M40.042,25.422c4.567-1.021,7.566,0.108,8.005,0.236c5.698,1.664,9.889,5.117,12.2,10.61
			c2.611,6.208,1.768,12.159-1.679,17.594c4.295,4.422,8.507,8.759,12.721,13.094c0,0.161,0,0.321,0,0.481
			c-1.281,1.281-2.564,2.564-3.847,3.846c-0.159,0-0.319,0-0.48,0c-4.4-4.154-8.803-8.31-13.337-12.587
			c0.19-0.098-0.101,0.035-0.375,0.196c-11.271,6.599-24.217,1.298-27.664-11.32c-0.078-0.288-1.012-3.63-0.351-7.537
			c0.196-0.5,0.331-0.989,0.488-1.5c1.665-5.407,5.002-9.39,10.133-11.801C37.205,26.101,38.584,25.749,40.042,25.422z
			 M57.851,43.486c0.022-7.981-6.514-14.543-14.454-14.512c-7.823,0.031-14.354,6.559-14.394,14.384
			c-0.041,7.929,6.541,14.499,14.506,14.479C51.39,57.817,57.826,51.376,57.851,43.486z"/>
		<path fill-rule="evenodd" clip-rule="evenodd" fill="#FFFFFF" d="M67.442,71.283c1.282-1.281,2.565-2.564,3.847-3.846
			c0,1.281,0,2.564,0,3.846C70.008,71.283,68.725,71.283,67.442,71.283z"/>
	</g>
</g>
</svg>
