<?xml version="1.0" encoding="utf-8"?>
<!-- Generator: Adobe Illustrator 16.0.0, SVG Export Plug-In . SVG Version: 6.00 Build 0)  -->
<!DOCTYPE svg PUBLIC "-//W3C//DTD SVG 1.1//EN" "http://www.w3.org/Graphics/SVG/1.1/DTD/svg11.dtd">
<svg version="1.1" id="Layer_1" xmlns="http://www.w3.org/2000/svg" xmlns:xlink="http://www.w3.org/1999/xlink" x="0px" y="0px"
	 width="18.836px" height="15.372px" viewBox="0 0 18.836 15.372" enable-background="new 0 0 18.836 15.372" xml:space="preserve">
<path fill-rule="evenodd" clip-rule="evenodd" fill="#FFFFFF" d="M1.24,0.748c2.12,2.448,4.768,3.798,7.997,4.026
	C9.213,4.526,9.187,4.298,9.17,4.068C9.121,3.332,9.286,2.641,9.646,2.001c0.479-0.853,1.179-1.467,2.109-1.773
	c1.455-0.479,2.771-0.2,3.916,0.821c0.149,0.134,0.266,0.168,0.459,0.121c0.701-0.173,1.369-0.422,1.999-0.774
	c0.045-0.025,0.091-0.048,0.138-0.07c0.007-0.005,0.018-0.002,0.044-0.004c-0.13,0.441-0.354,0.827-0.63,1.182
	c-0.273,0.351-0.605,0.642-0.973,0.898c0.729-0.073,1.421-0.271,2.09-0.557c0.014,0.017,0.025,0.034,0.038,0.049
	c-0.314,0.366-0.613,0.747-0.948,1.095c-0.264,0.273-0.568,0.509-0.861,0.754c-0.074,0.062-0.106,0.123-0.104,0.222
	c0.061,2.185-0.487,4.215-1.593,6.09c-1.229,2.086-2.954,3.624-5.21,4.533c-1.49,0.601-3.048,0.838-4.654,0.775
	c-1.432-0.055-2.8-0.375-4.104-0.964C0.895,14.188,0.449,13.928,0,13.666c2.089,0.167,3.97-0.348,5.667-1.63
	c-1.778-0.146-2.964-1.037-3.62-2.703C2.648,9.428,3.203,9.42,3.775,9.261C1.569,8.735,0.635,6.787,0.72,5.421
	c0.526,0.274,1.079,0.438,1.684,0.466C0.686,4.461,0.303,2.751,1.24,0.748z"/>
</svg>
