<?xml version="1.0" encoding="utf-8"?>
<!-- Generator: Adobe Illustrator 16.0.0, SVG Export Plug-In . SVG Version: 6.00 Build 0)  -->
<!DOCTYPE svg PUBLIC "-//W3C//DTD SVG 1.1//EN" "http://www.w3.org/Graphics/SVG/1.1/DTD/svg11.dtd">
<svg version="1.1" id="Layer_1" xmlns="http://www.w3.org/2000/svg" xmlns:xlink="http://www.w3.org/1999/xlink" x="0px" y="0px"
	 width="1463.766px" height="861px" viewBox="0 0 1463.766 861" enable-background="new 0 0 1463.766 861" xml:space="preserve">
<rect fill="#FFFFFF" width="1463.766" height="861"/>
<rect x="1004.17" y="604.842" fill-rule="evenodd" clip-rule="evenodd" fill="#ED1D24" width="164.418" height="164.418"/>
<rect x="1219.588" y="403.802" fill-rule="evenodd" clip-rule="evenodd" fill="#ED1D24" width="164.418" height="164.418"/>
<rect x="77.827" y="403.102" fill-rule="evenodd" clip-rule="evenodd" fill="#ED1D24" width="164.418" height="164.418"/>
<rect x="1002.985" y="209.927" fill-rule="evenodd" clip-rule="evenodd" fill="#ED1D24" width="164.418" height="164.418"/>
<path fill-rule="evenodd" clip-rule="evenodd" fill="#013F5B" d="M616.295,116.856c0.698,2.515,1.455,5.015,2.086,7.547
	c2.516,10.11,3.188,20.357,2.128,30.716c-0.926,9.053-3.222,17.757-6.771,26.134c-0.048,0.114-0.081,0.234-0.155,0.456
	c4.75,3.257,9.512,6.521,14.459,9.911c-16.311,6.913-32.454,13.757-48.787,20.68c1.098-17.667,2.185-35.166,3.285-52.89
	c4.916,3.678,9.7,7.26,14.498,10.851c8.39-20.702,6.336-53.017-17.551-75.744c-24.422-23.237-60.685-25.836-87.811-8.091
	c-29.399,19.232-40.213,56.423-26.153,88.171c7.618,17.207,20.26,29.585,37.672,36.804c17.359,7.197,34.95,7.34,52.735,0.799
	c2.334,6.091,4.65,12.136,6.967,18.18c-1.294,0.495-2.588,0.992-3.881,1.487c-0.547,0.137-1.101,0.249-1.639,0.412
	c-7.559,2.288-15.266,3.703-23.17,4.009c-14.836,0.574-28.958-2.33-42.388-8.64c-9.109-4.279-17.267-9.939-24.485-16.946
	c-7.635-7.411-13.703-15.956-18.324-25.535c-0.379-0.786-0.819-1.546-1.23-2.316c-1.172-3.058-2.343-6.114-3.516-9.172
	c-0.079-0.396-0.126-0.8-0.242-1.185c-2.166-7.133-3.494-14.415-3.907-21.86c-0.628-11.349,0.946-22.415,4.485-33.188
	c3.149-9.585,7.832-18.383,13.951-26.424c7.937-10.424,17.701-18.678,29.243-24.84c2.243-1.198,4.542-2.296,6.815-3.44
	c2.293-0.878,4.586-1.757,6.879-2.636c0.546-0.143,1.09-0.292,1.637-0.425c4.124-1.001,8.211-2.21,12.381-2.955
	c10.088-1.803,20.195-1.741,30.314,0.005c13.381,2.31,25.611,7.378,36.704,15.145c12.181,8.528,21.664,19.454,28.454,32.696
	c0.917,1.79,1.788,3.604,2.68,5.405C614.538,112.271,615.416,114.563,616.295,116.856z"/>
<text transform="matrix(1 0 0 1 452.3672 378.6094)" font-family="'OpenSans-Bold'" font-size="45">SPRINT</text>
<g>
	<text transform="matrix(1 0 0 1 635.96 126.1982)"><tspan x="0" y="0" fill="#013F5B" font-family="'Roboto-Regular'" font-size="17">DAILY STAND UP</tspan><tspan x="29.168" y="20.4" fill="#013F5B" font-family="'Roboto-Regular'" font-size="17">MEETING</tspan></text>
</g>
<g>
	<text transform="matrix(1 0 0 1 85.71 549.1934)" fill="#FFFFFF" font-family="'Roboto-Regular'" font-size="17">Sprint Planning</text>
</g>
<text transform="matrix(1 0 0 1 1050.2295 529.5928)"><tspan x="0" y="0" fill="#013F5B" font-family="'Roboto-Regular'" font-size="17">product </tspan><tspan x="-9.222" y="20.4" fill="#013F5B" font-family="'Roboto-Regular'" font-size="17">increment </tspan></text>
<text transform="matrix(1 0 0 1 272.2852 258.0498)"><tspan x="0" y="0" fill="#013F5B" font-family="'Roboto-Regular'" font-size="17">Iterative QA </tspan><tspan x="22.034" y="20.4" fill="#013F5B" font-family="'Roboto-Regular'" font-size="17">Testing</tspan></text>
<g>
	<text transform="matrix(1 0 0 1 494.9912 401.4766)" fill="#013F5B" font-family="'OpenSans-Italic'" font-size="14">(Two Weeks)</text>
</g>
<g>
	<g>
		<path fill-rule="evenodd" clip-rule="evenodd" d="M546.848,139.53c0.011,10.68,0.008,21.355,0.008,32.035
			c0,1.442-0.519,2.315-1.612,2.743c-1.566,0.615-3.303-0.495-3.398-2.181c-0.022-0.419-0.01-0.847-0.01-1.27
			c0-6.124,0-12.248,0-18.373c0-0.218,0-0.438,0-0.699c-0.731,0-1.417,0-2.175,0c0,0.24,0,0.477,0,0.709
			c0,6.419,0,12.841-0.002,19.258c-0.004,1.328-0.615,2.223-1.739,2.599c-1.534,0.512-3.159-0.58-3.266-2.19
			c-0.016-0.22-0.016-0.443-0.016-0.665c-0.001-10.659-0.001-21.321,0-31.982c0-0.26,0-0.515,0-0.83
			c0.232-0.045-0.565,1.649-0.792,2.494c-0.391,1.476-0.79,2.95-1.181,4.425c-0.394,1.497-1.703,2.354-3.065,2.006
			c-1.46-0.371-2.213-1.732-1.803-3.275c1.406-5.264,2.832-10.521,4.212-15.792c0.275-1.06,0.896-1.739,1.875-2.067
			c3.855-1.072,12.059-0.725,14.214,0.243c0.694,0.311,1.127,0.882,1.331,1.654c1.42,5.357,2.867,10.708,4.292,16.065
			c0.388,1.461-0.399,2.801-1.819,3.172c-1.318,0.34-2.665-0.489-3.045-1.891c-0.589-2.162-1.195-4.321-1.719-6.499"/>
		<path fill-rule="evenodd" clip-rule="evenodd" d="M535.204,119.214c0.027-2.995,2.432-5.373,5.407-5.344
			c3.015,0.029,5.351,2.436,5.331,5.48c-0.019,2.884-2.474,5.288-5.382,5.27C537.581,124.603,535.178,122.177,535.204,119.214z"/>
		<g>
			<path fill-rule="evenodd" clip-rule="evenodd" d="M522.02,152.101c-0.003,3.389,0.007,6.783-0.007,10.175
				c-0.005,1.63-0.076,3.255-0.078,4.881c0,1.562,0.077,3.125,0.073,4.687c-0.008,1.154-0.682,2.021-1.739,2.373
				c-0.945,0.316-2.003,0.008-2.666-0.77c-0.512-0.601-0.602-1.322-0.602-2.073c0.006-3.367,0-6.733,0.004-10.097
				c0-7.311,0.002-14.619,0.002-21.926c0-0.145-0.021-0.287-0.034-0.429c-0.125,0.056-0.154,0.123-0.174,0.196
				c-0.577,2.155-1.19,4.299-1.713,6.465c-0.358,1.488-1.637,2.41-3.171,2.028c-1.421-0.356-2.085-1.771-1.657-3.37
				c1.389-5.191,2.784-10.384,4.155-15.581c0.256-0.974,0.814-1.659,1.735-1.971c1.092-0.366,2.219-0.627,3.361-0.94
				c8.182-0.502,9.534,0.629,10.707,0.932c-0.072,0.3-0.104,0.474-0.151,0.641c-1.499,5.583-3.015,11.158-4.476,16.75
				c-0.19,0.733-0.238,1.572-0.083,2.308c0.407,1.924,1.691,3.072,3.598,3.518c0.02,0.085,0.047,0.147,0.047,0.208
				c0.003,7.284,0.014,14.564-0.009,21.849c-0.001,1.06-0.593,1.814-1.574,2.207c-1.678,0.677-3.386-0.535-3.39-2.429
				c-0.003-3.391,0.061-6.784,0.061-10.178c0-3.189-0.048-6.386-0.079-9.582c0-0.06-0.042-0.119-0.078-0.216
				c-0.66,0-1.316,0-2.028,0C522.038,151.921,522.02,152.009,522.02,152.101z"/>
			<path fill-rule="evenodd" clip-rule="evenodd" d="M528.332,119.214c-0.025-2.995-2.431-5.373-5.408-5.344
				c-3.013,0.029-5.349,2.436-5.328,5.48c0.019,2.884,2.473,5.288,5.382,5.27C525.957,124.603,528.357,122.177,528.332,119.214z"/>
		</g>
		<g>
			<path fill-rule="evenodd" clip-rule="evenodd" d="M559.326,151.756c-0.712,0-1.37,0-2.03,0c-0.036,0.097-0.078,0.156-0.078,0.216
				c-0.031,3.196-0.079,6.393-0.079,9.582c-0.001,3.394,0.063,6.787,0.061,10.178c-0.003,1.894-1.713,3.105-3.388,2.429
				c-0.983-0.393-1.575-1.147-1.575-2.207c-0.021-7.284-0.013-14.564-0.01-21.849c0-0.061,0.027-0.123,0.047-0.208
				c1.905-0.445,3.191-1.594,3.599-3.518c0.154-0.735,0.106-1.574-0.084-2.308c-1.461-5.592-2.977-11.167-4.476-16.75
				c-0.047-0.167-0.081-0.341-0.151-0.641c1.173-0.303,2.527-1.434,10.707-0.932c1.143,0.313,2.271,0.574,3.359,0.94
				c0.923,0.312,1.483,0.997,1.737,1.971c1.373,5.197,2.765,10.39,4.156,15.581c0.427,1.599-0.238,3.014-1.659,3.37
				c-1.533,0.382-2.812-0.54-3.169-2.028c-0.521-2.166-1.137-4.31-1.714-6.465c-0.019-0.073-0.046-0.141-0.174-0.196
				c-0.013,0.142-0.034,0.284-0.034,0.429c0,7.307,0.002,14.615,0.005,21.926c0.001,3.363-0.005,6.729,0.001,10.097
				c0,0.751-0.089,1.473-0.602,2.073c-0.665,0.777-1.72,1.086-2.667,0.77c-1.058-0.353-1.729-1.219-1.735-2.373
				c-0.007-1.562,0.07-3.125,0.07-4.687c-0.004-1.626-0.07-3.251-0.078-4.881c-0.012-3.392-0.004-6.786-0.008-10.175
				C559.357,152.009,559.34,151.921,559.326,151.756z"/>
			<path fill-rule="evenodd" clip-rule="evenodd" d="M553.046,119.214c0.025-2.995,2.431-5.373,5.407-5.344
				c3.013,0.029,5.35,2.436,5.329,5.48c-0.019,2.884-2.473,5.288-5.382,5.27C555.421,124.603,553.021,122.177,553.046,119.214z"/>
		</g>
		<g>
			<path fill-rule="evenodd" clip-rule="evenodd" d="M504.331,152.101c-0.004,3.389,0.004,6.783-0.008,10.175
				c-0.008,1.63-0.074,3.255-0.076,4.881c0,1.562,0.075,3.125,0.068,4.687c-0.004,1.154-0.678,2.021-1.735,2.373
				c-0.944,0.316-2.002,0.008-2.667-0.77c-0.512-0.601-0.602-1.322-0.602-2.073c0.008-3.367,0-6.733,0.001-10.097
				c0.001-7.311,0.007-14.619,0.007-21.926c0-0.145-0.023-0.287-0.034-0.429c-0.128,0.056-0.156,0.123-0.176,0.196
				c-0.577,2.155-1.192,4.299-1.714,6.465c-0.357,1.488-1.638,2.41-3.17,2.028c-1.423-0.356-2.085-1.771-1.656-3.37
				c1.39-5.191,2.782-10.384,4.154-15.581c0.256-0.974,0.814-1.659,1.735-1.971c1.091-0.366,2.219-0.627,3.361-0.94
				c8.18-0.502,9.534,0.629,10.706,0.932c-0.069,0.3-0.104,0.474-0.15,0.641c-1.499,5.583-3.014,11.158-4.476,16.75
				c-0.188,0.733-0.24,1.572-0.083,2.308c0.406,1.924,1.692,3.072,3.597,3.518c0.021,0.085,0.048,0.147,0.048,0.208
				c0.004,7.284,0.012,14.564-0.009,21.849c-0.001,1.06-0.593,1.814-1.575,2.207c-1.676,0.677-3.385-0.535-3.389-2.429
				c-0.003-3.391,0.062-6.784,0.061-10.178c0-3.189-0.049-6.386-0.079-9.582c0-0.06-0.043-0.119-0.079-0.216
				c-0.659,0-1.317,0-2.029,0C504.349,151.921,504.331,152.009,504.331,152.101z"/>
			<path fill-rule="evenodd" clip-rule="evenodd" d="M510.643,119.214c-0.027-2.995-2.431-5.373-5.408-5.344
				c-3.012,0.029-5.349,2.436-5.329,5.48c0.019,2.884,2.474,5.288,5.382,5.27C508.268,124.603,510.669,122.177,510.643,119.214z"/>
		</g>
	</g>
</g>
<g>
	<text transform="matrix(1 0 0 1 663.2412 167.2197)" fill="#013F5B" font-family="'OpenSans-Italic'" font-size="14">(15 minutes)</text>
</g>
<g>
	<text transform="matrix(1 0 0 1 126.6211 585.4199)" fill="#013F5B" font-family="'OpenSans-Italic'" font-size="14">(3 hours)</text>
</g>
<g>
	<text transform="matrix(1 0 0 1 1263.8408 585.5459)" fill="#013F5B" font-family="'OpenSans-Italic'" font-size="14">(30 Minutes)</text>
</g>
<g>
	<text transform="matrix(1 0 0 1 1058.9326 394.2324)" fill="#013F5B" font-family="'OpenSans-Italic'" font-size="14">(2 hours)</text>
</g>
<g>
	<text transform="matrix(1 0 0 1 1058.9385 786.7012)" fill="#013F5B" font-family="'OpenSans-Italic'" font-size="14">(2 hours)</text>
</g>
<g>
	<text transform="matrix(1 0 0 1 1021.7461 750.0176)" fill="#FFFFFF" font-family="'Roboto-Regular'" font-size="17">Retro Meeting</text>
</g>
<g>
	<text transform="matrix(1 0 0 1 1054.0088 338.4219)"><tspan x="0" y="0" fill="#FFFFFF" font-family="'Roboto-Regular'" font-size="17">sprint </tspan><tspan x="-4.042" y="20.4" fill="#FFFFFF" font-family="'Roboto-Regular'" font-size="17">Revtiew</tspan></text>
</g>
<g>
	<text transform="matrix(1 0 0 1 1275.2051 528.4326)"><tspan x="0" y="0" fill="#FFFFFF" font-family="'Roboto-Regular'" font-size="17">Show </tspan><tspan x="-11.741" y="20.4" fill="#FFFFFF" font-family="'Roboto-Regular'" font-size="17">and Tell</tspan></text>
</g>
<g>
	<path fill-rule="evenodd" clip-rule="evenodd" fill="#FFFFFF" d="M1089.484,687.605c0.026,0.595,0.028,1.192,0.087,1.782
		c0.132,1.319,0.322,2.633,0.429,3.953c0.057,0.714,0.31,0.969,1.064,0.967c10.734-0.024,21.47-0.017,32.204-0.015
		c0.275,0,0.552-0.014,0.826,0.014c0.77,0.078,1.339,0.704,1.339,1.451c0,0.804-0.51,1.345-1.347,1.41
		c-0.323,0.024-0.65,0.01-0.976,0.01c-25.448,0.001-50.896,0.003-76.345-0.003c-0.418,0-0.878-0.005-1.246-0.171
		c-0.574-0.258-0.806-0.806-0.725-1.435c0.084-0.663,0.462-1.109,1.127-1.238c0.34-0.063,0.698-0.042,1.048-0.043
		c8.233-0.002,16.465-0.006,24.697,0.012c0.664,0.002,0.866-0.112,0.837-0.872c-0.037-0.979,0.17-1.981,0.366-2.956
		c0.771-3.822,1.57-7.64,2.371-11.455c0.238-1.14,1.362-2.072,2.632-2.079c4.529-0.026,9.059-0.022,13.588,0.002
		c1.275,0.008,2.367,0.911,2.658,2.151c0.264,1.12,0.464,2.252,0.654,3.387c0.092,0.549,0.311,0.634,0.747,0.339
		c0.703-0.479,1.392-0.978,2.115-1.424c1.426-0.874,3.077-0.539,3.976,0.772c0.936,1.365,0.676,3.062-0.711,4.047
		c-2.158,1.535-4.338,3.047-6.551,4.502c-1.738,1.146-4.074,0.023-4.42-2.053c-0.061-0.359-0.14-0.715-0.211-1.071
		C1089.642,687.595,1089.563,687.601,1089.484,687.605z M1080.086,685.196c-0.065-0.007-0.134-0.015-0.199-0.021
		c-0.065,0.41-0.112,0.824-0.196,1.232c-0.507,2.464-1.029,4.926-1.525,7.393c-0.027,0.141,0.127,0.45,0.191,0.449
		c0.197-0.005,0.42-0.086,0.578-0.209c0.092-0.068,0.086-0.273,0.105-0.422c0.351-2.52,0.702-5.037,1.041-7.557
		C1080.119,685.777,1080.086,685.485,1080.086,685.196z"/>
	<path fill-rule="evenodd" clip-rule="evenodd" fill="#FFFFFF" d="M1043.362,686.313c-0.094,0.172-0.164,0.251-0.183,0.341
		c-0.708,3.325-1.396,6.654-2.126,9.974c-0.141,0.635,0.059,0.825,0.651,0.93c2.931,0.51,5.855,1.046,8.781,1.596
		c0.978,0.184,1.696,0.782,2.072,1.679c1.764,4.218,3.516,8.44,5.221,12.681c0.73,1.821-0.042,3.335-1.934,4.052
		c-1.345,0.51-2.933-0.36-3.583-1.939c-1.416-3.439-2.848-6.873-4.264-10.313c-0.225-0.547-0.599-0.771-1.182-0.871
		c-3.35-0.574-6.696-1.176-10.04-1.798c-1.474-0.275-2.499-1.684-2.28-3.229c0.188-1.332,0.529-2.644,0.816-3.961
		c0.761-3.468,1.522-6.935,2.29-10.4c0.443-1.999,0.86-4.007,1.36-5.993c0.566-2.262,3.205-2.976,4.83-1.302
		c1.043,1.076,1.989,2.247,2.975,3.38c1.444,1.66,2.869,3.339,4.348,4.969c0.264,0.29,0.74,0.514,1.134,0.541
		c1.823,0.121,3.649,0.149,5.474,0.233c1.798,0.082,3.043,1.336,3.001,2.983c-0.04,1.595-1.442,2.872-3.175,2.826
		c-2.352-0.061-4.701-0.186-7.052-0.255c-1.206-0.035-2.14-0.518-2.916-1.442c-1.258-1.493-2.573-2.934-3.867-4.394
		C1043.637,686.511,1043.529,686.447,1043.362,686.313z"/>
	<path fill-rule="evenodd" clip-rule="evenodd" fill="#FFFFFF" d="M1126.569,686.35c-0.255,0.224-0.484,0.388-0.668,0.593
		c-1.301,1.454-2.608,2.9-3.881,4.379c-0.597,0.695-1.324,1.047-2.218,1.082c-2.524,0.102-5.049,0.23-7.575,0.278
		c-1.745,0.034-3.05-1.256-3.079-2.915c-0.028-1.572,1.196-2.794,2.941-2.883c1.823-0.093,3.647-0.161,5.474-0.201
		c0.544-0.011,0.926-0.17,1.29-0.594c2.33-2.71,4.674-5.414,7.041-8.094c1.577-1.785,4.233-1.392,4.985,0.77
		c0.385,1.102,0.553,2.281,0.805,3.428c0.78,3.539,1.555,7.079,2.33,10.618c0.471,2.146,0.966,4.291,1.415,6.442
		c0.318,1.534-0.879,3.152-2.425,3.421c-3.373,0.59-6.745,1.185-10.107,1.837c-0.357,0.069-0.788,0.457-0.936,0.804
		c-1.521,3.529-2.967,7.091-4.483,10.621c-0.656,1.524-2.214,2.136-3.664,1.552c-1.467-0.59-2.222-2.094-1.648-3.617
		c0.923-2.453,1.956-4.865,2.948-7.292c0.747-1.826,1.5-3.649,2.258-5.473c0.46-1.107,1.297-1.731,2.476-1.936
		c2.759-0.477,5.516-0.964,8.272-1.452c0.929-0.164,0.985-0.235,0.78-1.188c-0.706-3.271-1.428-6.542-2.146-9.812
		C1126.733,686.629,1126.67,686.548,1126.569,686.35z"/>
	<path fill-rule="evenodd" clip-rule="evenodd" fill="#FFFFFF" d="M1071.376,622.248c0.941,0.372,1.548-0.282,2.251-1.063
		c4.577-5.091,12.118-5.282,17.053-0.509c0.204,0.198,0.621,0.354,0.883,0.293c3.638-0.851,7.781,1.345,9.128,4.911
		c0.279,0.741,0.441,1.535,0.574,2.32c0.088,0.519,0.23,0.814,0.795,1.002c4.399,1.448,7.292,6.426,6.424,10.965
		c-0.803,4.197-3.306,6.87-7.375,8.024c-1.919,0.544-3.879,0.388-5.764-0.277c-0.521-0.184-0.771-0.132-1.072,0.372
		c-2.861,4.804-8.865,6.245-13.631,3.286c-0.392-0.244-0.69-0.248-1.092-0.001c-4.482,2.753-10.28,0.6-11.895-4.402
		c-0.008-0.022-0.025-0.048-0.025-0.07c0.057-1.566-0.956-2.146-2.2-2.828c-4.258-2.333-6.424-6.043-6.19-10.905
		c0.221-4.641,2.609-7.995,6.775-10.036C1067.63,622.536,1069.383,622.241,1071.376,622.248z M1064.148,634.314
		c0.094,0.655,0.129,1.325,0.295,1.963c0.828,3.18,2.879,5.229,5.972,6.24c0.555,0.182,0.729,0.478,0.746,1.021
		c0.069,2.261,1.121,3.954,3.166,4.891c1.928,0.884,3.813,0.622,5.486-0.71c0.557-0.444,0.953-0.396,1.522,0.008
		c2.335,1.655,4.815,1.843,7.387,0.562c1.498-0.746,2.526-1.944,3.271-3.417c0.394-0.781,0.66-0.869,1.401-0.492
		c1.925,0.98,3.892,1.031,5.9,0.273c3.583-1.351,5.45-5.851,3.872-9.319c-0.981-2.165-2.572-3.59-4.904-4.148
		c-0.576-0.137-0.893-0.448-0.82-1.092c0.035-0.314-0.006-0.644-0.047-0.962c-0.408-3.203-3.75-5.401-6.882-4.521
		c-0.562,0.157-1.05,0.238-1.512-0.286c-3.49-3.981-10.401-4.022-13.655,0.917c-0.324,0.493-0.724,0.691-1.304,0.544
		c-1.157-0.289-2.313-0.142-3.436,0.142C1066.816,626.886,1064.193,630.349,1064.148,634.314z"/>
	<path fill-rule="evenodd" clip-rule="evenodd" fill="#FFFFFF" d="M1085.01,708.173c0-2.425-0.015-4.85,0.005-7.273
		c0.011-1.232,0.904-2.399,2.008-2.709c1.318-0.368,2.66,0.028,3.304,1.117c0.305,0.513,0.517,1.165,0.521,1.757
		c0.043,4.723,0.032,9.449,0.021,14.171c-0.006,1.792-1.309,3.116-2.98,3.092c-1.634-0.024-2.872-1.351-2.878-3.106
		c-0.008-2.349-0.002-4.698-0.002-7.048H1085.01z"/>
	<path fill-rule="evenodd" clip-rule="evenodd" fill="#FFFFFF" d="M1083.638,708.19c0,2.352,0.01,4.703-0.003,7.055
		c-0.012,1.771-1.253,3.073-2.899,3.082c-1.637,0.008-2.943-1.31-2.95-3.05c-0.017-4.704-0.017-9.408,0-14.111
		c0.007-1.836,1.241-3.097,2.958-3.095c1.703,0.002,2.891,1.283,2.895,3.139C1083.644,703.536,1083.64,705.862,1083.638,708.19z"/>
	<path fill-rule="evenodd" clip-rule="evenodd" fill="#FFFFFF" d="M1084.495,664.635c2.604,0.003,4.689,2.063,4.692,4.638
		c0.005,2.587-2.144,4.744-4.715,4.736c-2.544-0.009-4.687-2.147-4.693-4.686C1079.772,666.703,1081.856,664.629,1084.495,664.635z"
		/>
	<path fill-rule="evenodd" clip-rule="evenodd" fill="#FFFFFF" d="M1126.575,664.637c2.588,0.029,4.66,2.131,4.631,4.696
		c-0.03,2.597-2.19,4.715-4.771,4.674c-2.565-0.042-4.642-2.177-4.61-4.739C1121.859,666.617,1123.921,664.608,1126.575,664.637z"/>
	<path fill-rule="evenodd" clip-rule="evenodd" fill="#FFFFFF" d="M1043.684,664.635c2.575-0.032,4.679,1.983,4.719,4.521
		c0.044,2.66-2.054,4.844-4.655,4.854c-2.56,0.008-4.708-2.103-4.729-4.643C1038.997,666.723,1041.026,664.666,1043.684,664.635z"/>
	<path fill-rule="evenodd" clip-rule="evenodd" fill="#FFFFFF" d="M1077.092,658.108c0.853,0.01,1.626,0.787,1.63,1.638
		c0.004,0.84-0.852,1.726-1.67,1.727c-0.875,0.003-1.672-0.817-1.658-1.706C1075.406,658.87,1076.196,658.099,1077.092,658.108z
		 M1077.986,659.968c0.004-0.112,0.006-0.224,0.01-0.335c-0.31-0.214-0.621-0.595-0.926-0.588c-0.271,0.004-0.683,0.4-0.762,0.697
		c-0.129,0.471,0.234,0.862,0.718,0.802C1077.366,660.499,1077.667,660.17,1077.986,659.968z"/>
	<path fill-rule="evenodd" clip-rule="evenodd" fill="#FFFFFF" d="M1062.811,661.028c-0.004,0.926-0.75,1.668-1.662,1.654
		c-0.947-0.017-1.644-0.731-1.626-1.676c0.016-0.949,0.721-1.616,1.694-1.602C1062.139,659.419,1062.812,660.106,1062.811,661.028z
		 M1062.118,661.208c0.002-0.111,0.006-0.224,0.008-0.335c-0.312-0.222-0.646-0.643-0.93-0.61c-0.307,0.036-0.566,0.494-0.845,0.768
		c0.273,0.275,0.522,0.74,0.828,0.776C1061.462,661.842,1061.803,661.426,1062.118,661.208z"/>
	<path fill-rule="evenodd" clip-rule="evenodd" fill="#FFFFFF" d="M1114.036,663.119c0.013,0.943-0.704,1.664-1.649,1.658
		c-0.917-0.005-1.616-0.684-1.642-1.593c-0.025-0.961,0.654-1.673,1.611-1.687C1113.329,661.483,1114.024,662.155,1114.036,663.119z
		 M1113.564,663.128c-0.535-0.388-0.892-0.832-1.138-0.778c-0.328,0.074-0.572,0.533-0.851,0.827
		c0.284,0.264,0.554,0.705,0.861,0.735C1112.718,663.938,1113.041,663.517,1113.564,663.128z"/>
	<path fill-rule="evenodd" clip-rule="evenodd" fill="#FFFFFF" d="M1076.631,663.113c0,0.667-0.564,1.241-1.235,1.256
		c-0.711,0.015-1.225-0.495-1.231-1.224c-0.005-0.724,0.496-1.24,1.21-1.245C1076.082,661.896,1076.629,662.424,1076.631,663.113z
		 M1075.356,662.289c-0.258,0.412-0.523,0.65-0.496,0.848c0.029,0.21,0.335,0.382,0.521,0.57c0.196-0.206,0.501-0.388,0.55-0.623
		C1075.966,662.918,1075.655,662.68,1075.356,662.289z"/>
	<path fill-rule="evenodd" clip-rule="evenodd" fill="#FFFFFF" d="M1059.618,666.562c-0.702,0.002-1.244-0.521-1.25-1.207
		c-0.007-0.707,0.57-1.291,1.268-1.278c0.646,0.01,1.227,0.603,1.228,1.257C1060.864,665.993,1060.29,666.561,1059.618,666.562z
		 M1060.462,665.371c-0.408-0.254-0.664-0.535-0.867-0.505c-0.217,0.036-0.533,0.366-0.535,0.569
		c-0.002,0.194,0.353,0.558,0.535,0.55C1059.839,665.972,1060.065,665.67,1060.462,665.371z"/>
	<path fill-rule="evenodd" clip-rule="evenodd" fill="#FFFFFF" d="M1114.042,666.294c0.67,0.047,1.228,0.668,1.174,1.309
		c-0.052,0.616-0.73,1.209-1.341,1.171c-0.668-0.042-1.188-0.645-1.144-1.325C1112.774,666.757,1113.354,666.247,1114.042,666.294z
		 M1113.932,666.704c-0.254,0.375-0.541,0.613-0.519,0.82c0.023,0.217,0.345,0.402,0.533,0.603c0.206-0.214,0.529-0.403,0.578-0.647
		C1114.56,667.308,1114.219,667.061,1113.932,666.704z"/>
	<path fill-rule="evenodd" clip-rule="evenodd" fill="#FFFFFF" d="M1057.181,668.509c0.017,0.542-0.476,1.079-1.002,1.096
		c-0.533,0.015-1.072-0.498-1.071-1.021c0-0.521,0.532-1.059,1.05-1.06C1056.673,667.523,1057.165,667.996,1057.181,668.509z
		 M1056.141,669.222c0.217-0.299,0.465-0.494,0.44-0.646c-0.028-0.17-0.283-0.368-0.476-0.418c-0.097-0.025-0.388,0.257-0.382,0.393
		C1055.733,668.736,1055.937,668.915,1056.141,669.222z"/>
	<path fill-rule="evenodd" clip-rule="evenodd" fill="#FFFFFF" d="M1077.349,667.474c-0.005,0.531-0.531,1.074-1.048,1.078
		c-0.504,0.003-1.009-0.493-1.022-1.004c-0.013-0.521,0.523-1.066,1.051-1.07C1076.844,666.473,1077.353,666.97,1077.349,667.474z
		 M1076.94,667.536c-0.303-0.202-0.481-0.41-0.671-0.418c-0.128-0.006-0.404,0.32-0.372,0.41c0.067,0.186,0.279,0.393,0.467,0.438
		C1076.485,667.995,1076.671,667.748,1076.94,667.536z"/>
	<path fill-rule="evenodd" clip-rule="evenodd" fill="#FFFFFF" d="M1117.416,669.616c0.549-0.01,1.032,0.475,1.042,1.043
		c0.012,0.56-0.467,1.045-1.03,1.044c-0.552-0.001-1.058-0.498-1.056-1.034C1116.374,670.127,1116.871,669.623,1117.416,669.616z
		 M1118.058,670.72c-0.305-0.197-0.508-0.436-0.667-0.408c-0.171,0.029-0.429,0.317-0.413,0.471c0.014,0.17,0.288,0.428,0.461,0.439
		C1117.598,671.231,1117.775,670.962,1118.058,670.72z"/>
</g>
<g>
	<path fill-rule="evenodd" clip-rule="evenodd" fill="#FFFFFF" d="M162.893,485.062c0.026,0.576,0.026,1.157,0.085,1.731
		c0.127,1.282,0.313,2.559,0.416,3.842c0.055,0.693,0.301,0.941,1.034,0.94c10.435-0.025,20.868-0.018,31.302-0.017
		c0.269,0,0.538-0.011,0.803,0.016c0.748,0.074,1.302,0.684,1.302,1.41c0,0.78-0.494,1.307-1.309,1.369
		c-0.315,0.024-0.632,0.011-0.948,0.011c-24.735,0.001-49.47,0.003-74.205-0.003c-0.406,0-0.854-0.006-1.21-0.165
		c-0.56-0.251-0.785-0.783-0.705-1.396c0.081-0.645,0.448-1.078,1.095-1.204c0.33-0.062,0.678-0.04,1.018-0.041
		c8.002-0.002,16.005-0.006,24.006,0.011c0.646,0.001,0.842-0.109,0.813-0.848c-0.035-0.953,0.167-1.927,0.355-2.872
		c0.749-3.717,1.526-7.426,2.306-11.136c0.23-1.105,1.323-2.013,2.558-2.021c4.403-0.025,8.804-0.021,13.208,0.004
		c1.239,0.007,2.3,0.885,2.582,2.092c0.257,1.086,0.451,2.188,0.636,3.289c0.09,0.533,0.303,0.616,0.727,0.33
		c0.685-0.465,1.354-0.951,2.057-1.383c1.386-0.851,2.991-0.525,3.865,0.75c0.908,1.326,0.655,2.976-0.691,3.933
		c-2.099,1.493-4.216,2.962-6.368,4.377c-1.69,1.112-3.958,0.022-4.295-1.996c-0.059-0.349-0.137-0.694-0.206-1.041
		C163.046,485.051,162.97,485.056,162.893,485.062z M153.758,482.72c-0.065-0.007-0.13-0.015-0.194-0.021
		c-0.062,0.399-0.109,0.803-0.19,1.197c-0.494,2.396-1,4.79-1.482,7.188c-0.027,0.136,0.124,0.437,0.187,0.436
		c0.191-0.004,0.407-0.083,0.562-0.202c0.088-0.068,0.082-0.268,0.102-0.41c0.341-2.449,0.682-4.897,1.012-7.346
		C153.791,483.285,153.758,483,153.758,482.72z"/>
	<path fill-rule="evenodd" clip-rule="evenodd" fill="#FFFFFF" d="M115.325,483.806c-0.09,0.166-0.16,0.243-0.178,0.331
		c-0.688,3.231-1.355,6.467-2.064,9.694c-0.139,0.618,0.056,0.802,0.633,0.903c2.848,0.495,5.691,1.017,8.534,1.551
		c0.95,0.178,1.65,0.762,2.014,1.633c1.716,4.099,3.418,8.202,5.073,12.324c0.712,1.77-0.038,3.241-1.878,3.939
		c-1.306,0.493-2.851-0.352-3.481-1.886c-1.377-3.345-2.769-6.682-4.145-10.024c-0.218-0.531-0.582-0.75-1.148-0.848
		c-3.258-0.557-6.509-1.142-9.758-1.748c-1.434-0.267-2.43-1.636-2.218-3.137c0.183-1.295,0.514-2.569,0.794-3.852
		c0.738-3.369,1.479-6.738,2.227-10.106c0.431-1.944,0.836-3.896,1.321-5.826c0.551-2.198,3.116-2.893,4.694-1.266
		c1.015,1.046,1.935,2.185,2.892,3.284c1.404,1.615,2.789,3.246,4.226,4.831c0.256,0.282,0.72,0.499,1.103,0.524
		c1.771,0.118,3.548,0.146,5.321,0.227c1.746,0.081,2.957,1.299,2.915,2.901c-0.039,1.55-1.401,2.791-3.086,2.747
		c-2.285-0.06-4.569-0.179-6.854-0.248c-1.173-0.035-2.079-0.503-2.836-1.402c-1.22-1.45-2.501-2.852-3.758-4.27
		C115.593,483.997,115.488,483.936,115.325,483.806z"/>
	<path fill-rule="evenodd" clip-rule="evenodd" fill="#FFFFFF" d="M201.972,483.841c-0.25,0.217-0.473,0.376-0.65,0.576
		c-1.264,1.411-2.535,2.818-3.771,4.256c-0.582,0.675-1.289,1.017-2.157,1.052c-2.453,0.101-4.906,0.223-7.362,0.271
		c-1.696,0.032-2.964-1.221-2.993-2.833c-0.027-1.527,1.163-2.717,2.859-2.803c1.771-0.09,3.546-0.156,5.32-0.195
		c0.528-0.01,0.9-0.165,1.253-0.575c2.267-2.638,4.544-5.264,6.846-7.869c1.532-1.735,4.113-1.352,4.846,0.747
		c0.373,1.072,0.535,2.219,0.781,3.332c0.758,3.441,1.51,6.882,2.266,10.321c0.457,2.087,0.938,4.171,1.373,6.263
		c0.311,1.49-0.853,3.062-2.355,3.324c-3.278,0.572-6.557,1.153-9.824,1.785c-0.348,0.067-0.766,0.444-0.91,0.78
		c-1.478,3.432-2.882,6.894-4.357,10.324c-0.637,1.482-2.151,2.076-3.562,1.509c-1.425-0.573-2.159-2.035-1.602-3.516
		c0.897-2.385,1.901-4.729,2.865-7.088c0.727-1.775,1.458-3.547,2.194-5.319c0.447-1.076,1.262-1.684,2.406-1.881
		c2.682-0.464,5.361-0.937,8.041-1.411c0.901-0.16,0.959-0.23,0.759-1.154c-0.687-3.181-1.388-6.358-2.088-9.537
		C202.13,484.113,202.069,484.033,201.972,483.841z"/>
	<path fill-rule="evenodd" clip-rule="evenodd" fill="#FFFFFF" d="M157.048,505.051c0-2.354-0.014-4.713,0.005-7.069
		c0.01-1.196,0.879-2.331,1.951-2.631c1.282-0.359,2.584,0.026,3.212,1.085c0.295,0.498,0.502,1.133,0.506,1.709
		c0.041,4.59,0.031,9.183,0.02,13.772c-0.006,1.741-1.271,3.028-2.896,3.005c-1.587-0.023-2.792-1.312-2.798-3.02
		c-0.008-2.281-0.002-4.566-0.002-6.852C157.045,505.051,157.046,505.051,157.048,505.051z"/>
	<path fill-rule="evenodd" clip-rule="evenodd" fill="#FFFFFF" d="M156.914,505.069c-0.001,2.286,0.01,4.571-0.004,6.856
		c-0.011,1.722-1.218,2.988-2.819,2.996c-1.59,0.007-2.859-1.272-2.866-2.965c-0.017-4.572-0.017-9.145,0-13.717
		c0.007-1.783,1.206-3.009,2.874-3.006c1.656,0.001,2.811,1.246,2.815,3.049C156.919,500.547,156.915,502.807,156.914,505.069z"/>
	<path fill-rule="evenodd" clip-rule="evenodd" fill="#FFFFFF" d="M158.649,462.733c2.53,0.003,4.557,2.008,4.561,4.508
		c0.004,2.516-2.084,4.611-4.584,4.604c-2.473-0.008-4.555-2.086-4.562-4.554C154.059,464.744,156.084,462.729,158.649,462.733z"/>
	<path fill-rule="evenodd" clip-rule="evenodd" fill="#FFFFFF" d="M202.45,462.736c2.515,0.027,4.53,2.07,4.501,4.564
		c-0.028,2.524-2.129,4.583-4.638,4.542c-2.493-0.04-4.512-2.114-4.479-4.605C197.866,464.662,199.869,462.708,202.45,462.736z"/>
	<path fill-rule="evenodd" clip-rule="evenodd" fill="#FFFFFF" d="M119.415,462.733c2.503-0.03,4.548,1.93,4.586,4.394
		c0.041,2.586-1.996,4.708-4.524,4.717c-2.487,0.009-4.577-2.041-4.596-4.511C114.86,464.764,116.831,462.764,119.415,462.733z"/>
	<path fill="#FFFFFF" d="M185.136,458.962h-49.398c-3.223,0-5.844-2.621-5.844-5.844v-35.891c0-3.222,2.621-5.844,5.844-5.844
		h49.398c3.223,0,5.843,2.622,5.843,5.844v35.891C190.979,456.341,188.358,458.962,185.136,458.962z M135.737,413.723
		c-1.934,0-3.507,1.571-3.507,3.505v35.891c0,1.934,1.573,3.507,3.507,3.507h49.398c1.933,0,3.505-1.573,3.505-3.507v-35.891
		c0-1.934-1.572-3.505-3.505-3.505H135.737z"/>
	<path fill="#FFFFFF" d="M165.926,428.558h-10.98c-0.686,0-1.244-0.519-1.244-1.156v-4.725c0-0.637,0.559-1.155,1.244-1.155h10.98
		c0.687,0,1.245,0.519,1.245,1.155v4.725C167.171,428.039,166.612,428.558,165.926,428.558z M154.945,422.321
		c-0.246,0-0.445,0.159-0.445,0.355v4.725c0,0.194,0.204,0.356,0.445,0.356h10.98c0.246,0,0.445-0.159,0.445-0.356v-4.725
		c0-0.196-0.199-0.355-0.445-0.355H154.945z"/>
	<path fill="#FFFFFF" d="M165.926,437.513h-10.98c-0.686,0-1.244-0.518-1.244-1.154v-4.726c0-0.637,0.559-1.155,1.244-1.155h10.98
		c0.687,0,1.245,0.519,1.245,1.155v4.726C167.171,436.995,166.612,437.513,165.926,437.513z M154.945,431.276
		c-0.246,0-0.445,0.16-0.445,0.356v4.726c0,0.192,0.204,0.356,0.445,0.356h10.98c0.246,0,0.445-0.16,0.445-0.356v-4.726
		c0-0.196-0.199-0.356-0.445-0.356H154.945z"/>
	<path fill="#FFFFFF" d="M165.926,447.098h-10.98c-0.686,0-1.244-0.52-1.244-1.157v-4.724c0-0.638,0.559-1.156,1.244-1.156h10.98
		c0.687,0,1.245,0.519,1.245,1.156v4.724C167.171,446.578,166.612,447.098,165.926,447.098z M154.945,440.86
		c-0.246,0-0.445,0.158-0.445,0.356v4.724c0,0.194,0.204,0.356,0.445,0.356h10.98c0.246,0,0.445-0.159,0.445-0.356v-4.724
		c0-0.198-0.199-0.356-0.445-0.356H154.945z"/>
	<g>
		<g>
			<path fill="#FFFFFF" d="M150.038,434.063c-2.35-0.679-3.591-2.265-3.591-4.584c0-1.41,0.459-2.546,1.364-3.373
				c1.896-1.736,5.066-1.479,5.199-1.465l-0.07,0.797c-0.03-0.004-2.956-0.239-4.592,1.259c-0.73,0.671-1.103,1.606-1.103,2.782
				c0,1.953,1.015,3.237,3.014,3.817L150.038,434.063z"/>
			<g>
				<path fill="#FFFFFF" d="M149.836,433.577c-0.719-0.938-0.896-2.628-0.777-3.768c0.933,1.677,2.231,3.202,3.917,4.186
					c-1.88,0.478-3.477,1.7-4.874,3.017C148.361,435.809,148.854,434.372,149.836,433.577z"/>
			</g>
		</g>
	</g>
	<g>
		<g>
			<path fill="#FFFFFF" d="M171.942,443.636l-0.223-0.769c2-0.579,3.015-1.863,3.015-3.818c0-1.174-0.371-2.108-1.103-2.78
				c-1.637-1.499-4.562-1.264-4.592-1.26l-0.071-0.795c0.131-0.015,3.302-0.273,5.201,1.464c0.904,0.828,1.363,1.962,1.363,3.371
				C175.533,441.369,174.293,442.954,171.942,443.636z"/>
			<g>
				<path fill="#FFFFFF" d="M172.145,443.149c0.938,0.717,1.55,2.303,1.733,3.435c-1.338-1.375-2.989-2.51-4.873-3.018
					c1.689-0.952,2.912-2.549,3.916-4.186C172.985,440.609,172.884,442.127,172.145,443.149z"/>
			</g>
		</g>
	</g>
</g>
<g>
	<path fill-rule="evenodd" clip-rule="evenodd" fill="#FFFFFF" d="M1044.108,280.667c-0.091,0.168-0.16,0.248-0.179,0.336
		c-0.699,3.282-1.377,6.569-2.099,9.847c-0.139,0.628,0.057,0.815,0.644,0.918c2.893,0.504,5.781,1.033,8.669,1.576
		c0.966,0.181,1.677,0.773,2.045,1.658c1.743,4.163,3.472,8.331,5.154,12.519c0.723,1.798-0.038,3.293-1.909,4.001
		c-1.325,0.503-2.895-0.355-3.535-1.914c-1.398-3.396-2.812-6.788-4.209-10.184c-0.224-0.54-0.592-0.762-1.168-0.861
		c-3.309-0.566-6.612-1.159-9.912-1.775c-1.456-0.271-2.468-1.66-2.252-3.187c0.186-1.314,0.522-2.609,0.807-3.911
		c0.749-3.423,1.504-6.846,2.262-10.267c0.436-1.976,0.849-3.958,1.342-5.919c0.559-2.232,3.165-2.938,4.769-1.285
		c1.03,1.063,1.965,2.219,2.937,3.337c1.428,1.64,2.832,3.297,4.292,4.906c0.261,0.286,0.731,0.508,1.121,0.534
		c1.799,0.119,3.603,0.147,5.405,0.23c1.773,0.081,3.003,1.319,2.961,2.946c-0.041,1.574-1.423,2.835-3.134,2.79
		c-2.323-0.061-4.643-0.183-6.962-0.252c-1.19-0.034-2.113-0.511-2.88-1.424c-1.242-1.473-2.54-2.896-3.819-4.339
		C1044.381,280.861,1044.275,280.799,1044.108,280.667z"/>
	<path fill-rule="evenodd" clip-rule="evenodd" fill="#FFFFFF" d="M1126.263,280.702c-0.252,0.221-0.479,0.384-0.659,0.585
		c-1.284,1.435-2.575,2.863-3.832,4.324c-0.59,0.687-1.309,1.032-2.189,1.068c-2.492,0.101-4.983,0.227-7.48,0.274
		c-1.722,0.033-3.01-1.24-3.039-2.878c-0.029-1.552,1.18-2.76,2.902-2.848c1.803-0.091,3.604-0.157,5.406-0.197
		c0.536-0.012,0.914-0.168,1.272-0.585c2.301-2.678,4.616-5.347,6.952-7.993c1.559-1.763,4.181-1.373,4.924,0.761
		c0.378,1.088,0.544,2.251,0.793,3.384c0.771,3.494,1.533,6.99,2.301,10.483c0.466,2.12,0.953,4.237,1.396,6.36
		c0.314,1.515-0.867,3.112-2.394,3.378c-3.329,0.582-6.66,1.17-9.979,1.813c-0.353,0.068-0.778,0.451-0.925,0.794
		c-1.501,3.484-2.929,7.001-4.426,10.486c-0.648,1.506-2.187,2.108-3.618,1.532c-1.448-0.582-2.193-2.068-1.628-3.572
		c0.912-2.422,1.933-4.803,2.912-7.198c0.737-1.804,1.48-3.604,2.228-5.404c0.454-1.093,1.282-1.709,2.445-1.911
		c2.723-0.47,5.446-0.951,8.167-1.434c0.917-0.161,0.974-0.232,0.771-1.171c-0.697-3.231-1.409-6.46-2.118-9.688
		C1126.424,280.979,1126.363,280.898,1126.263,280.702z"/>
	<path fill-rule="evenodd" clip-rule="evenodd" fill="#FFFFFF" d="M1056.721,247.651c-0.002,2.076,0.006,4.152-0.004,6.228
		c-0.005,1.563-0.721,2.714-1.673,2.721c-0.944,0.007-1.698-1.155-1.702-2.693c-0.011-4.152-0.009-8.304,0-12.456
		c0.004-1.62,0.717-2.732,1.708-2.731c0.982,0.002,1.667,1.133,1.671,2.771C1056.723,243.543,1056.721,245.597,1056.721,247.651z"/>
	<path fill-rule="evenodd" clip-rule="evenodd" fill="#FFFFFF" d="M1118.927,247.651c0,2.076,0.005,4.152-0.002,6.228
		c-0.007,1.563-0.724,2.714-1.675,2.721c-0.944,0.007-1.698-1.155-1.702-2.693c-0.009-4.152-0.009-8.304,0-12.456
		c0.004-1.62,0.716-2.732,1.708-2.731c0.982,0.002,1.667,1.133,1.671,2.771C1118.93,243.543,1118.927,245.597,1118.927,247.651z"/>
	<path fill-rule="evenodd" clip-rule="evenodd" fill="#FFFFFF" d="M1126.268,259.265c2.556,0.028,4.603,2.104,4.573,4.638
		c-0.029,2.563-2.164,4.653-4.712,4.613c-2.531-0.04-4.582-2.147-4.551-4.679C1121.611,261.221,1123.647,259.236,1126.268,259.265z"
		/>
	<path fill-rule="evenodd" clip-rule="evenodd" fill="#FFFFFF" d="M1044.428,259.262c2.543-0.03,4.619,1.96,4.657,4.464
		c0.044,2.627-2.025,4.782-4.595,4.792c-2.527,0.008-4.649-2.076-4.668-4.583C1039.801,261.324,1041.804,259.293,1044.428,259.262z"
		/>
	<g>
		<g>
			<path fill="#FFFFFF" d="M1128.624,288.943c-0.304-0.029-0.612-0.016-0.917-0.016c-11.918-0.002-23.834-0.011-35.752,0.018
				c-0.079,0-0.13-0.016-0.197-0.021l-21.041-0.001c-0.088,0.009-0.184,0.012-0.294,0.012c-9.14-0.019-18.278-0.014-27.419-0.012
				c-0.387,0.001-0.785-0.023-1.162,0.048c-0.737,0.143-1.157,0.638-1.25,1.374c-0.092,0.699,0.166,1.308,0.805,1.593
				c0.407,0.184,0.919,0.189,1.383,0.189c28.25,0.008,56.502,0.006,84.752,0.005c0.362,0,0.724,0.015,1.084-0.013
				c0.93-0.071,1.495-0.672,1.495-1.564C1130.11,289.725,1129.479,289.029,1128.624,288.943z"/>
		</g>
	</g>
	<path fill="#FFFFFF" d="M1110.865,271.24h-49.403c-3.222,0-5.845-2.621-5.845-5.844v-35.896c0-3.222,2.623-5.844,5.845-5.844
		h49.403c3.224,0,5.844,2.622,5.844,5.844v35.896C1116.709,268.619,1114.089,271.24,1110.865,271.24z M1061.462,225.995
		c-1.933,0-3.507,1.573-3.507,3.506v35.896c0,1.933,1.574,3.506,3.507,3.506h49.403c1.934,0,3.507-1.573,3.507-3.506v-35.896
		c0-1.933-1.573-3.506-3.507-3.506H1061.462z"/>
	<g>
		<g>
			<path fill="#FFFFFF" d="M1095.266,259.188c-0.502,0-0.965,0-1.452,0c0,0.159,0,0.299,0,0.438c0,2.183-0.001,4.365-0.001,6.548
				h1.453c0-2.195,0-4.393,0-6.588C1095.266,259.458,1095.266,259.33,1095.266,259.188z"/>
			<path fill="#FFFFFF" d="M1099.762,257.188c-0.004-0.942-0.383-1.819-0.823-2.646c-1.242-2.335-3.196-3.568-5.841-3.589
				c-4.527-0.034-9.057-0.034-13.585-0.008c-3.068,0.017-5.497,1.972-6.361,5.05c-0.159,0.573-0.248,1.166-0.368,1.749
				c0,2.81,0,5.619,0,8.429h4.689c0-2.192,0.004-4.385,0.004-6.576c0-0.13,0-0.258,0-0.408c0.5,0,0.971,0,1.482,0
				c0,0.144,0,0.282,0,0.42c0,2.188,0,4.376,0,6.564h14.854c0-2.183,0.001-4.365,0.001-6.548c0-0.14,0-0.279,0-0.438
				c0.487,0,0.95,0,1.452,0c0,0.143,0,0.271,0,0.398c0,2.195,0,4.393,0,6.588h4.507
				C1099.772,263.178,1099.771,260.184,1099.762,257.188z"/>
			<path fill="#FFFFFF" d="M1078.959,259.609c0-0.138,0-0.276,0-0.42c-0.512,0-0.982,0-1.482,0c0,0.15,0,0.278,0,0.408
				c0,2.191-0.004,4.384-0.004,6.576h1.486C1078.959,263.985,1078.959,261.798,1078.959,259.609z"/>
			<path fill="#FFFFFF" d="M1086.719,249.67c2.672-0.301,4.787-2.396,5.19-5.139c0.378-2.566-1.112-5.223-3.526-6.227
				c-0.535-0.223-1.118-0.335-1.679-0.5c-0.466,0-0.932,0-1.399,0c-0.372,0.091-0.752,0.157-1.115,0.274
				c-2.944,0.95-4.668,3.942-4.013,6.947C1080.833,248.031,1083.633,250.018,1086.719,249.67z"/>
		</g>
	</g>
</g>
<g>
	<path fill="#013F5B" d="M520.118,502.7h-4.523c1.501,0.135,3.008,0.251,4.523,0.334V502.7z"/>
	<path fill="#013F5B" d="M695.054,366.432c-0.601-18.611-4.324-36.625-10.987-54.042c-8.641-22.582-21.647-42.27-38.891-59.177
		c-3.352-3.289-6.853-6.426-10.284-9.631c-3.604-2.748-7.21-5.495-10.813-8.241c-0.894-0.536-1.777-1.085-2.679-1.604
		c-6.784-3.914-13.395-8.179-20.394-11.663c-16.928-8.43-34.861-13.57-53.689-15.731c-24.895-2.857-49.188-0.232-72.868,7.763
		c-25.998,8.778-48.469,23.203-67.37,43.13c-2.555,2.692-5.039,5.452-7.555,8.181c-2.747,3.605-5.495,7.211-8.241,10.814
		c-2.543,4.092-5.181,8.127-7.612,12.284c-9.705,16.6-16.218,34.396-19.72,53.293c-3.061,16.516-3.516,33.121-1.578,49.799
		c0.025,0.229,0.022,0.458,0.039,0.892c-10.105,3.299-20.234,6.606-30.754,10.042c25.295,20.712,50.332,41.215,75.664,61.958
		c7.231-31.859,14.392-63.414,21.646-95.374c-10.616,3.962-20.947,7.818-31.31,11.687c-4.108-41.02,16.309-97.183,70.414-125.03
		c55.318-28.473,120.892-14.244,159.717,31.268c42.081,49.33,41.919,120.809,0.534,169.736
		c-22.429,26.516-51.244,41.874-85.829,45.618c-7.617,0.824-113.827,0.298-113.827,0.298H271.454v36.258h248.652
		c11.269,0.524,22.633-0.097,34.096-1.876c18.354-2.848,35.738-8.635,52.163-17.297c17.371-9.162,32.553-21.141,45.713-35.708
		c1.08-1.196,2.252-2.311,3.381-3.463c3.663-4.807,7.326-9.613,10.988-14.42c0.346-0.657,0.641-1.351,1.046-1.971
		c7.54-11.508,13.675-23.715,18.271-36.687C692.769,407.764,695.728,387.349,695.054,366.432z"/>
</g>
<g>
	<path fill="#013F5B" d="M856.694,519.27l-85.24-51.471c-0.043,10.936-0.085,21.83-0.127,32.718H653.022
		c-14.626,19.487-35.828,29.076-53.28,36.258h171.444c-0.037,9.586-0.074,19.185-0.111,28.818
		C799.677,551.454,828.018,533.445,856.694,519.27z"/>
</g>
<g id="w2sB15.tif_3_">
	<g>
		<g>
			<path d="M1090.519,434.967l0.352,0.144c1.01,0.412,2.02,0.824,3.035,1.226c1.763,0.697,3.529,1.386,5.296,2.074l2.243,0.876
				l1.166,0.456l7.377,2.883l4.047,1.579l-0.732,0.337c-2.494,1.147-4.989,2.295-7.483,3.446c-1.932,0.892-3.862,1.788-5.792,2.685
				c-1.447,0.672-2.895,1.344-4.34,2.013l-0.636,0.294c-1.503,0.694-3.05,1.409-4.583,2.1c-2.718-1.235-5.462-2.505-8.123-3.735
				l-0.671-0.311c-1.553-0.717-3.104-1.437-4.657-2.156c-1.876-0.87-3.753-1.74-5.631-2.606c-1.503-0.694-3.007-1.386-4.511-2.076
				c3.879-1.521,7.758-3.042,11.639-4.559c2.326-0.908,4.654-1.812,6.982-2.716C1087.168,436.27,1088.84,435.62,1090.519,434.967
				 M1090.576,431.751c-0.076,0-0.152,0-0.229,0c-0.238,0.114-0.471,0.245-0.717,0.342c-4.068,1.585-8.142,3.159-12.209,4.748
				c-5.377,2.101-10.751,4.21-16.126,6.317c-0.629,0.246-1.254,0.501-1.983,0.793c0.253,0.147,0.402,0.252,0.565,0.327
				c3.416,1.573,6.836,3.139,10.251,4.715c3.431,1.583,6.856,3.178,10.286,4.763c3.206,1.482,6.411,2.967,9.629,4.425
				c0.117,0.053,0.266,0.079,0.416,0.079c0.152,0,0.305-0.027,0.424-0.08c2.028-0.904,4.044-1.84,6.061-2.771
				c3.378-1.563,6.752-3.137,10.132-4.697c4.259-1.966,8.521-3.922,12.781-5.885c0.559-0.258,1.109-0.533,1.793-0.864
				c-0.591-0.232-1.042-0.412-1.494-0.589c-3.025-1.182-6.052-2.361-9.077-3.543c-2.848-1.111-5.694-2.225-8.542-3.338
				c-2.511-0.981-5.023-1.956-7.53-2.946C1093.524,432.96,1092.053,432.35,1090.576,431.751L1090.576,431.751z"/>
		</g>
		<g>
			<path d="M1061.114,450.78l4.219,1.952l3.875,1.794l4.29,1.984l7.19,3.325l1.551,0.718c1.336,0.619,2.673,1.238,4.013,1.849
				c-0.009,10.904-0.009,21.809-0.008,32.713v3.118c-3.632-1.938-7.264-3.877-10.895-5.816l-0.045-0.023l-5.424-2.899l-8.05-4.302
				c-0.241-0.128-0.483-0.257-0.727-0.385c0.009-9.584,0.01-19.167,0.01-28.751V450.78 M1058.142,446.106
				c-0.013,0.247-0.026,0.396-0.026,0.547c-0.002,13.151,0.001,26.303-0.012,39.454c0,0.414,0.16,0.622,0.498,0.788
				c0.611,0.304,1.217,0.624,1.82,0.945c4.49,2.398,8.979,4.799,13.469,7.198c4.255,2.272,8.51,4.545,12.767,6.814
				c0.831,0.443,1.669,0.872,2.587,1.351c0-0.492,0-0.889,0-1.285c0-13.607-0.003-27.216,0.009-40.823
				c0-0.435-0.103-0.676-0.523-0.865c-2.27-1.021-4.523-2.074-6.782-3.118c-3.827-1.769-7.653-3.539-11.48-5.309
				c-3.016-1.396-6.031-2.794-9.047-4.188C1060.354,447.123,1059.288,446.634,1058.142,446.106L1058.142,446.106z"/>
		</g>
		<g>
			<path d="M1119.811,450.778v2.107c-0.001,10.642-0.001,21.283,0.013,31.932c-1.55,0.815-3.094,1.641-4.637,2.466l-2.208,1.179
				l-3.216,1.712c-1.847,0.982-3.693,1.966-5.539,2.952c-1.5,0.803-3,1.607-4.5,2.413c-1.494,0.803-2.99,1.605-4.486,2.405
				c-0.186,0.1-0.371,0.198-0.557,0.298v-3.482c-0.001-10.788-0.001-21.578-0.009-32.363c1.58-0.724,3.157-1.455,4.733-2.188
				l2.474-1.146l5.078-2.344c1.98-0.913,3.96-1.826,5.94-2.741c2.242-1.036,4.483-2.074,6.725-3.112L1119.811,450.778
				 M1122.811,446.102c-0.249,0.105-0.387,0.16-0.522,0.224c-3.55,1.643-7.099,3.288-10.649,4.929
				c-3.672,1.697-7.346,3.389-11.018,5.085c-2.811,1.3-5.614,2.612-8.433,3.894c-0.42,0.191-0.518,0.438-0.518,0.869
				c0.011,13.796,0.009,27.594,0.01,41.391c0,0.201,0,0.402,0,0.663c0.169-0.055,0.261-0.071,0.339-0.112
				c1.546-0.815,3.092-1.629,4.633-2.453c2.997-1.603,5.989-3.216,8.986-4.818c2.915-1.559,5.834-3.107,8.751-4.662
				c2.581-1.375,5.154-2.764,7.747-4.118c0.473-0.246,0.689-0.5,0.688-1.07c-0.018-13.017-0.014-26.033-0.014-39.049
				C1122.811,446.646,1122.811,446.42,1122.811,446.102L1122.811,446.102z"/>
		</g>
	</g>
</g>
<g>
	<g>
		<path fill="#FFFFFF" d="M1340.596,486.032c-0.268-0.025-0.54-0.014-0.81-0.014c-10.519-0.002-21.036-0.01-31.555,0.016
			c-0.07,0-0.115-0.014-0.175-0.02l-18.572-0.001c-0.075,0.008-0.16,0.011-0.258,0.011c-8.067-0.017-16.135-0.012-24.199-0.011
			c-0.344,0.001-0.695-0.021-1.025,0.043c-0.653,0.125-1.023,0.562-1.105,1.213c-0.079,0.615,0.146,1.153,0.711,1.406
			c0.359,0.161,0.811,0.166,1.221,0.166c24.935,0.006,49.869,0.004,74.804,0.004c0.319,0,0.638,0.014,0.957-0.012
			c0.819-0.062,1.317-0.592,1.317-1.381C1341.906,486.722,1341.35,486.107,1340.596,486.032z"/>
	</g>
	<path fill-rule="evenodd" clip-rule="evenodd" fill="#FFFFFF" d="M1258.715,478.2c-0.091,0.168-0.161,0.246-0.18,0.333
		c-0.692,3.258-1.366,6.521-2.083,9.771c-0.137,0.624,0.059,0.811,0.64,0.912c2.871,0.5,5.737,1.025,8.604,1.563
		c0.958,0.181,1.662,0.768,2.029,1.646c1.73,4.133,3.447,8.269,5.115,12.424c0.717,1.785-0.039,3.269-1.895,3.971
		c-1.316,0.498-2.873-0.354-3.508-1.899c-1.389-3.371-2.793-6.735-4.178-10.106c-0.222-0.535-0.588-0.755-1.159-0.854
		c-3.282-0.562-6.562-1.15-9.838-1.762c-1.443-0.269-2.448-1.647-2.233-3.162c0.184-1.306,0.518-2.591,0.799-3.882
		c0.746-3.396,1.493-6.793,2.244-10.188c0.436-1.961,0.844-3.927,1.332-5.874c0.557-2.215,3.142-2.915,4.734-1.275
		c1.021,1.055,1.949,2.202,2.914,3.312c1.416,1.628,2.811,3.271,4.26,4.87c0.259,0.283,0.725,0.502,1.112,0.528
		c1.784,0.118,3.576,0.146,5.362,0.229c1.76,0.08,2.98,1.309,2.939,2.923c-0.039,1.563-1.412,2.814-3.111,2.77
		c-2.304-0.06-4.605-0.182-6.908-0.249c-1.181-0.035-2.096-0.508-2.859-1.414c-1.23-1.462-2.52-2.875-3.788-4.306
		C1258.984,478.393,1258.878,478.332,1258.715,478.2z"/>
	<path fill-rule="evenodd" clip-rule="evenodd" fill="#FFFFFF" d="M1340.244,478.235c-0.25,0.22-0.475,0.38-0.655,0.581
		c-1.273,1.425-2.554,2.841-3.802,4.291c-0.585,0.681-1.299,1.024-2.174,1.06c-2.474,0.1-4.947,0.225-7.422,0.272
		c-1.709,0.033-2.988-1.23-3.018-2.855c-0.027-1.54,1.173-2.738,2.882-2.826c1.788-0.09,3.574-0.157,5.363-0.196
		c0.533-0.011,0.909-0.166,1.264-0.58c2.283-2.657,4.58-5.306,6.899-7.933c1.545-1.75,4.148-1.362,4.886,0.754
		c0.377,1.08,0.542,2.236,0.788,3.358c0.764,3.468,1.522,6.938,2.283,10.404c0.462,2.104,0.947,4.204,1.386,6.313
		c0.312,1.502-0.86,3.088-2.376,3.352c-3.303,0.576-6.608,1.161-9.903,1.8c-0.35,0.067-0.771,0.447-0.917,0.787
		c-1.489,3.458-2.905,6.948-4.394,10.407c-0.641,1.493-2.168,2.092-3.589,1.521c-1.437-0.577-2.178-2.053-1.615-3.545
		c0.905-2.403,1.916-4.767,2.889-7.145c0.732-1.79,1.471-3.576,2.211-5.362c0.453-1.085,1.272-1.697,2.428-1.896
		c2.703-0.467,5.404-0.944,8.104-1.422c0.908-0.162,0.967-0.231,0.765-1.163c-0.692-3.207-1.398-6.411-2.104-9.614
		C1340.403,478.51,1340.344,478.431,1340.244,478.235z"/>
	<path fill-rule="evenodd" clip-rule="evenodd" fill="#FFFFFF" d="M1340.249,456.96c2.535,0.028,4.566,2.087,4.538,4.603
		c-0.029,2.544-2.146,4.618-4.675,4.578c-2.514-0.04-4.548-2.132-4.518-4.643C1335.628,458.901,1337.646,456.932,1340.249,456.96z"
		/>
	<path fill-rule="evenodd" clip-rule="evenodd" fill="#FFFFFF" d="M1259.03,456.959c2.523-0.031,4.584,1.942,4.624,4.428
		c0.041,2.607-2.014,4.747-4.562,4.756c-2.508,0.008-4.614-2.059-4.633-4.548C1254.438,459.005,1256.425,456.988,1259.03,456.959z"
		/>
	<g id="w2sB15.tif_2_">
		<g>
			<g>
				<path fill-rule="evenodd" clip-rule="evenodd" fill="#FFFFFF" d="M1301.009,463.603c0.423,0.173,0.845,0.348,1.271,0.516
					c0.72,0.284,1.439,0.563,2.161,0.846c0.817,0.319,1.636,0.639,2.451,0.958c0.869,0.339,1.737,0.678,2.605,1.016
					c0.131,0.052,0.261,0.104,0.431,0.17c-0.197,0.096-0.355,0.175-0.516,0.249c-1.223,0.562-2.447,1.124-3.669,1.688
					c-0.97,0.448-1.938,0.899-2.909,1.348c-0.577,0.268-1.155,0.536-1.738,0.796c-0.068,0.03-0.173,0.03-0.241,0.001
					c-0.923-0.419-1.843-0.845-2.764-1.271c-0.983-0.455-1.968-0.913-2.952-1.367c-0.98-0.452-1.962-0.901-2.943-1.354
					c-0.046-0.021-0.088-0.052-0.16-0.095c0.209-0.084,0.387-0.155,0.568-0.227c1.543-0.605,3.086-1.21,4.629-1.812
					c1.167-0.456,2.336-0.908,3.504-1.363c0.07-0.028,0.137-0.065,0.205-0.099C1300.964,463.603,1300.986,463.603,1301.009,463.603z
					"/>
				<path fill-rule="evenodd" clip-rule="evenodd" fill="#FFFFFF" d="M1291.697,467.724c0.33,0.15,0.636,0.292,0.941,0.433
					c0.865,0.4,1.73,0.802,2.597,1.202c1.099,0.508,2.197,1.017,3.294,1.523c0.65,0.3,1.297,0.602,1.948,0.896
					c0.12,0.055,0.15,0.123,0.15,0.248c-0.003,3.905-0.003,7.812-0.003,11.718c0,0.114,0,0.227,0,0.368
					c-0.263-0.138-0.502-0.262-0.742-0.388c-1.223-0.651-2.443-1.304-3.664-1.956c-1.289-0.688-2.578-1.378-3.867-2.066
					c-0.173-0.092-0.346-0.184-0.521-0.271c-0.098-0.047-0.144-0.105-0.144-0.225c0.004-3.776,0.003-7.55,0.003-11.325
					C1291.69,467.838,1291.693,467.793,1291.697,467.724z"/>
				<path fill-rule="evenodd" clip-rule="evenodd" fill="#FFFFFF" d="M1310.26,467.722c0,0.092,0,0.155,0,0.221
					c0,3.736-0.002,7.472,0.004,11.208c0,0.164-0.062,0.237-0.197,0.307c-0.744,0.391-1.482,0.788-2.223,1.184
					c-0.839,0.446-1.676,0.891-2.512,1.338c-0.861,0.46-1.72,0.923-2.58,1.383c-0.442,0.236-0.887,0.47-1.33,0.704
					c-0.022,0.012-0.048,0.016-0.098,0.031c0-0.074,0-0.132,0-0.19c0-3.959,0-7.919-0.002-11.879c0-0.124,0.027-0.195,0.147-0.25
					c0.81-0.368,1.614-0.744,2.421-1.117c1.054-0.486,2.107-0.973,3.162-1.46c1.02-0.471,2.037-0.942,3.057-1.414
					C1310.148,467.769,1310.188,467.752,1310.26,467.722z"/>
			</g>
		</g>
	</g>
	<path fill="#FFFFFF" d="M1325.978,458.104l0.773-1.229c0.828-1.319,1.758-2.798,2.134-4.479c-4.091-1.069-7.399-2.715-10.105-5.026
		c-2.04-1.746-3.194-3.505-3.631-5.536c-0.023-0.109-0.054-0.219-0.085-0.326l-0.059-0.289l0.038-2.323
		c0.034-0.162,0.065-0.323,0.095-0.485c0.458-2.547,1.795-4.791,3.976-6.669c2.237-1.927,5.034-3.284,8.55-4.147
		c1.741-0.429,3.602-0.69,5.531-0.776c0.856-0.038,1.57-0.057,2.252-0.057c1.692,0,3.166,0.12,4.507,0.366
		c2.735,0.504,5.259,1.49,7.497,2.932c2.889,1.858,4.896,4.052,6.14,6.707c0.761,1.626,1.069,3.155,0.945,4.675
		c-0.189,2.305-1.2,4.395-3.009,6.211c-2.195,2.206-5.047,3.748-8.72,4.712c-1.911,0.502-3.927,0.777-5.989,0.816
		c-0.295,0.006-0.508,0.088-0.752,0.294c-2.07,1.725-4.396,3.01-6.91,3.821c-0.419,0.135-0.844,0.235-1.254,0.332
		c-0.172,0.041-0.346,0.081-0.516,0.124L1325.978,458.104z M1320.993,441.387l0.01,0.043c0.027,0.097,0.055,0.192,0.074,0.289
		c0.283,1.312,1.048,2.465,2.409,3.629c1.927,1.646,4.302,2.815,7.257,3.574c0.064,0.017,0.126,0.035,0.197,0.057l0.453,0.135
		l-0.057,0.372c-0.178,1.179-0.679,2.201-1.221,3.12c0.078-0.021,0.154-0.044,0.231-0.069c1.759-0.567,3.384-1.466,4.831-2.673
		c0.334-0.276,0.681-0.41,1.095-0.418c1.46-0.027,2.886-0.221,4.237-0.576c2.566-0.675,4.552-1.743,6.068-3.265
		c1.207-1.216,1.855-2.545,1.98-4.064c0.079-0.972-0.125-1.963-0.622-3.028c-0.851-1.816-2.235-3.324-4.233-4.609
		c-1.564-1.008-3.33-1.697-5.247-2.05c-0.94-0.173-1.981-0.257-3.183-0.257c-0.49,0-1.008,0.013-1.629,0.041
		c-1.373,0.062-2.696,0.247-3.933,0.551c-2.47,0.607-4.426,1.553-5.978,2.891c-1.481,1.276-2.352,2.728-2.658,4.439
		c-0.023,0.127-0.049,0.254-0.076,0.381l-0.008,0.047V441.387z"/>
</g>
<text transform="matrix(1 0 0 1 880.8877 519.6914)"><tspan x="0" y="0" font-family="'OpenSans-ExtraboldItalic'" font-size="28.1163">alpha </tspan><tspan x="-8.594" y="28.428" font-family="'OpenSans-ExtraboldItalic'" font-size="28.1163">release</tspan></text>
<g>
	<path fill="none" d="M325.216,219.28c-0.304,0.018-0.3,0.243-0.295,0.454l0.642,0.11
		C325.558,219.599,325.602,219.258,325.216,219.28z"/>
	<path fill="none" d="M321.742,219.193l0.724,0.123c-0.106-0.055-0.23-0.094-0.388-0.109
		C321.977,219.197,321.866,219.191,321.742,219.193z"/>
	<path fill="none" d="M322.283,210.718h-1.838c0.518,0.005,1.035,0.013,1.553,0.022
		C322.105,210.743,322.195,210.731,322.283,210.718z"/>
	<path d="M353.313,204.901c-10.085,0.021-20.171,0.02-30.255,0.003c-0.922-0.001-1.48,0.028-1.487,0.943
		c-0.009,0.969,0.679,0.901,1.526,0.899c4.985-0.011,9.97-0.006,14.955-0.006c5.101,0,10.201-0.006,15.301,0.009
		c0.837,0.001,1.402-0.01,1.413-0.869C354.778,205.002,354.288,204.9,353.313,204.901z"/>
	<path d="M325.817,219.207l-4.075-0.014c0.124-0.002,0.234,0.004,0.336,0.014H325.817z"/>
	<path d="M331.844,215.729c-0.012-3.287-1.651-4.935-4.9-4.954c-0.481-0.003-0.963-0.012-1.443-0.005
		c-0.129,0.002-0.225-0.019-0.303-0.052h-2.914c-0.088,0.014-0.178,0.025-0.285,0.022c-0.518-0.01-1.035-0.018-1.553-0.022h-0.752
		c-0.456,0-0.912-0.001-1.368,0.013c-0.678,0.019-0.886-0.293-1.001-0.908c-0.397-2.148-0.812-4.295-1.301-6.423
		c-0.225-0.977,0.098-1.162,1.012-1.175c3.498-0.05,6.994-0.181,10.49-0.279c2.206-0.062,3.484-1.205,3.438-3.084
		c-0.046-1.869-1.362-2.934-3.614-2.87c-3.54,0.099-7.083,0.155-10.616,0.379c-1.285,0.081-2.136-0.308-2.94-1.234
		c-1.777-2.044-4.194-2.532-6.488-1.4c-2.207,1.089-3.24,3.323-2.717,5.955c0.98,4.928,1.967,9.854,2.976,14.776
		c0.659,3.215,2.512,4.721,5.783,4.737c2.798,0.015,11.565,0.094,11.565,0.094s0,0,0.304-0.018c0.386-0.022,0.342,0.318,0.347,0.564
		c0.014,0.612,0.007,1.224,0.007,1.836c0.001,3.717,0.005,7.433-0.001,11.15c-0.003,1.229,0.222,2.368,1.293,3.136
		c1.003,0.719,2.106,0.84,3.229,0.319c1.141-0.529,1.718-1.485,1.734-2.72c0.035-2.535,0.021-5.071,0.021-7.607
		C331.848,222.549,331.854,219.139,331.844,215.729z"/>
	<path d="M319.296,223.004c-2.448,0.008-4.898,0.042-7.343-0.05c-3.678-0.136-6.213-2.384-6.898-6
		c-0.301-1.589-0.57-3.182-0.864-4.771c-0.429-2.319-0.833-4.644-1.313-6.952c-0.241-1.163-0.973-1.981-2.206-2.125
		c-1.163-0.135-2.027,0.389-2.53,1.463c-0.412,0.88-0.071,2.454-0.006,2.806c0.645,3.482,1.277,6.967,1.9,10.452
		c1.073,6.02,5.826,10.085,11.908,10.157c2.406,0.028,4.812,0.04,7.218,0.041c2.4,0.002,3.243-0.858,3.205-3.235
		C321.772,223.455,320.685,223,319.296,223.004z"/>
	<path d="M309.236,192.041c3.239-0.021,5.82-2.617,5.822-5.857c0.003-3.237-2.579-5.827-5.829-5.846
		c-3.261-0.018-5.847,2.53-5.874,5.787C303.327,189.443,305.929,192.062,309.236,192.041z"/>
	<path d="M335.053,201.045c0.885-0.078,1.479-0.609,1.81-1.529c0.738-2.053,1.513-4.093,2.271-6.14
		c0.651-1.759,1.318-3.513,1.943-5.282c0.447-1.271,0.01-2.312-1.066-2.694c-1.081-0.383-2.056,0.125-2.538,1.41
		c-1.428,3.8-2.842,7.604-4.227,11.417C332.7,199.726,333.534,201.043,335.053,201.045z"/>
</g>
<g>
	<text transform="matrix(1 0 0 1 707.5576 324.541)"><tspan x="0" y="0" fill="#013F5B" font-family="'Roboto-Regular'" font-size="17">Burn down </tspan><tspan x="23.881" y="20.4" fill="#013F5B" font-family="'Roboto-Regular'" font-size="17">chart</tspan></text>
</g>
<g>
	<path d="M800.245,297.689c-0.285-0.028-0.574-0.016-0.862-0.016c-11.213-0.002-22.428-0.008-33.642,0.017
		c-0.073,0-0.122-0.014-0.187-0.02h-19.799c-0.082,0.007-0.172,0.011-0.276,0.011c-8.601-0.017-17.199-0.014-25.8-0.011
		c-0.181,0-0.361-0.005-0.544-0.003c0.003-10.96,0.009-21.918-0.016-32.878c0-0.074,0.015-0.122,0.021-0.187v-19.798
		c-0.008-0.082-0.012-0.174-0.012-0.277c0.018-8.601,0.013-17.2,0.012-25.799c0-0.367,0.022-0.74-0.045-1.095
		c-0.134-0.694-0.602-1.089-1.294-1.177c-0.657-0.086-1.229,0.156-1.498,0.757c-0.173,0.384-0.179,0.865-0.179,1.301
		c-0.007,26.585-0.005,53.167-0.005,79.752c0,0.339-0.014,0.681,0.014,1.019c0.066,0.875,0.632,1.406,1.472,1.406
		c0.233,0,0.453-0.058,0.653-0.154c0.366,0.137,0.805,0.146,1.209,0.146c26.584,0.007,53.167,0.006,79.751,0.005
		c0.338,0,0.68,0.014,1.02-0.012c0.874-0.066,1.406-0.633,1.406-1.473C801.645,298.425,801.049,297.771,800.245,297.689z"/>
	<g id="PF7mWH.tif_1_">
		<g>
			<path fill-rule="evenodd" clip-rule="evenodd" d="M776.905,275.495c0.195-0.777,0.146-1.525-0.166-2.268
				c-0.823-1.948-3.465-2.617-5.11-1.288c-0.518,0.417-0.896,0.921-1.126,1.546c-0.031,0.088-0.19,0.175-0.298,0.182
				c-1.588,0.133-3.172,0.253-4.76,0.374c-1.908,0.148-3.815,0.296-5.732,0.443c-0.41-0.812-1.019-1.413-1.885-1.726
				c-0.652-0.237-1.321-0.301-1.993-0.104c-0.166,0.049-0.246,0.004-0.335-0.109c-1.18-1.503-2.355-3.007-3.537-4.504
				c-1.514-1.916-3.031-3.829-4.549-5.74c-0.507-0.639-1.008-1.282-1.525-1.908c-0.146-0.178-0.126-0.308-0.036-0.497
				c0.471-1.004,0.483-2.008-0.036-3.006c-0.691-1.323-2.134-2.032-3.619-1.743c-0.229,0.046-0.346,0-0.485-0.188
				c-1.553-2.095-3.117-4.184-4.683-6.271c-1.494-1.997-2.992-3.989-4.489-5.985c-0.297-0.395-0.57-0.688-0.282-1.32
				c0.759-1.661-0.104-3.598-1.776-4.314c-1.383-0.589-3.051-0.164-3.948,1.008c-0.972,1.268-0.97,2.936,0.017,4.164
				c0.851,1.061,1.974,1.416,3.288,1.202c0.203-0.034,0.313-0.008,0.438,0.161c1.226,1.65,2.456,3.295,3.688,4.939
				c1.155,1.546,2.318,3.089,3.478,4.635c0.818,1.092,1.634,2.189,2.462,3.277c0.119,0.154,0.061,0.255-0.006,0.387
				c-0.911,1.791-0.207,3.873,1.588,4.662c0.699,0.305,1.426,0.385,2.169,0.181c0.168-0.047,0.255-0.013,0.362,0.123
				c1.868,2.366,3.741,4.729,5.611,7.096c1.354,1.711,2.706,3.421,4.051,5.139c0.048,0.06,0.063,0.196,0.028,0.263
				c-0.656,1.308-0.521,2.538,0.344,3.699c0.961,1.292,3.049,1.638,4.396,0.74c0.617-0.411,1.086-0.938,1.335-1.64
				c0.077-0.208,0.19-0.284,0.405-0.299c3.12-0.23,6.241-0.466,9.361-0.702c0.28-0.02,0.564-0.025,0.84-0.073
				c0.197-0.034,0.281,0.056,0.365,0.203c0.452,0.799,1.113,1.33,2.004,1.579c0.898,0.253,1.757,0.156,2.566-0.295
				c0.158-0.09,0.248-0.075,0.383,0.022c1.896,1.395,3.797,2.785,5.696,4.175c1.245,0.911,2.484,1.827,3.734,2.731
				c0.181,0.131,0.199,0.265,0.162,0.473c-0.377,2.061,1.216,3.975,3.29,3.971c1.657-0.005,3.045-1.173,3.317-2.794
				c0.272-1.634-0.66-3.229-2.235-3.748c-0.896-0.297-1.796-0.242-2.629,0.229c-0.246,0.14-0.393,0.066-0.577-0.072
				c-1.326-0.975-2.658-1.945-3.984-2.917c-1.438-1.053-2.874-2.104-4.31-3.158C777.752,276.122,777.335,275.812,776.905,275.495z"
				/>
		</g>
	</g>
</g>
<text transform="matrix(1 0 0 1 121.6641 89.0029)"><tspan x="0" y="0" font-family="'Roboto-Regular'" font-size="17">Working </tspan><tspan x="-9.4" y="20.4" font-family="'Roboto-Regular'" font-size="17">Agreement</tspan><tspan x="15.257" y="40.8" font-family="'Roboto-Regular'" font-size="17">(DOD) </tspan></text>
<g>
	<g>
		<path fill="#ED1D24" d="M192.415,261.525c0.004-0.004,0.008-0.008,0.012-0.013c-0.194-0.223-0.385-0.442-0.575-0.661
			C192.04,261.076,192.228,261.301,192.415,261.525z"/>
		<path fill="#ED1D24" d="M221.26,146.41c-0.001-3.605-0.859-4.484-4.412-4.549c-2.131-0.039-4.265-0.007-6.397-0.007
			c-34.511,0-69.021-0.003-103.532,0.005c-4.486,0-5.209,0.743-5.223,5.267c-0.015,4.459-0.006,8.919-0.006,13.378
			c0.001,40.715,0,81.43,0.006,122.145c0,4.277,0.746,5.238,4.35,5.24c36.935,0.021,73.869,0.02,110.803,0
			c3.569-0.002,4.387-0.904,4.39-4.534c0.003-3.368,0.002-6.736,0.003-10.104h0.004v-71.691l0.015-0.014
			C221.261,183.168,221.266,164.789,221.26,146.41z M214.99,268.662l-0.188,0.172c0,4.264,0,8.476,0,12.723
			c-35.573,0-71.091,0-106.869,0c0-44.553,0-88.84,0-133.34c35.608,0,71.125,0,106.874,0c0.068,0.813,0.199,1.646,0.199,2.479
			c0.005,18.871,0.016,37.742-0.075,56.613l0.06-0.055V268.662z"/>
		<path fill="#ED1D24" d="M122.477,192.171c12.973-0.021,25.945-0.01,38.917-0.01c0,0.005,0,0.011,0,0.017
			c12.682,0,25.364,0.001,38.046-0.002c0.871,0,1.985,0.299,2.562-0.122c1.119-0.817,2.556-1.983,2.679-3.131
			c0.095-0.885-1.496-2.141-2.575-2.886c-0.602-0.414-1.692-0.141-2.562-0.141c-17.136-0.011-34.271-0.02-51.406-0.021
			c-8.616-0.001-17.232-0.014-25.848,0.03c-2.993,0.015-4.59,1.655-3.958,3.961C118.915,191.996,120.626,192.175,122.477,192.171z"
			/>
		<path fill="#ED1D24" d="M202.104,220.074c-0.602-0.414-1.692-0.141-2.562-0.141c-17.136-0.011-34.271-0.02-51.406-0.021
			c-8.616-0.001-17.232-0.014-25.848,0.03c-2.993,0.015-4.59,1.655-3.958,3.961c0.584,2.129,2.295,2.308,4.146,2.304
			c12.973-0.021,25.945-0.01,38.917-0.01c0,0.005,0,0.011,0,0.017c12.682,0,25.364,0.001,38.046-0.002
			c0.871,0,1.985,0.299,2.562-0.122c1.119-0.817,2.556-1.983,2.679-3.131C204.774,222.075,203.184,220.819,202.104,220.074z"/>
		<path fill="#ED1D24" d="M201.28,202.924c-0.386-0.027-0.775-0.014-1.163-0.014c-19.482-0.001-38.965-0.003-58.448,0.002
			c-6.494,0.001-12.988-0.021-19.481,0.043c-3.037,0.031-4.544,1.686-3.835,4.023c0.606,2.004,2.229,2.126,3.966,2.123
			c12.987-0.018,25.976-0.01,38.964-0.01c0,0.006,0,0.011,0,0.016c6.688,0,13.376,0.002,20.064-0.001
			c6.591-0.003,13.182-0.044,19.772,0c2.052,0.014,3.549-0.77,3.69-2.827C204.966,204.014,203.385,203.069,201.28,202.924z"/>
		<path fill="#ED1D24" d="M135.121,242.828c0,0.006,0,0.013,0,0.02c4.254,0,8.51-0.045,12.766,0.019
			c2.211,0.032,4.018-0.578,4.043-3.041c0.025-2.476-1.842-3.146-4.002-3.147c-8.607-0.006-17.216-0.013-25.823-0.005
			c-2.171,0.002-3.937,0.669-3.855,3.237c0.076,2.381,1.719,2.953,3.815,2.932C126.416,242.797,130.769,242.828,135.121,242.828z"/>
	</g>
	<path fill-rule="evenodd" clip-rule="evenodd" fill="#ED1D24" d="M140.383,266.716c0.944-0.696,1.682-1.671,2.799-2.13
		c0.944-0.39,1.93-0.729,2.829,0.074c0.817,0.73,0.834,1.633,0.428,2.593c-0.087,0.206-0.092,0.446-0.201,1.025
		c0.905-0.807,1.543-1.432,2.239-1.981c0.693-0.549,1.441-1.012,2.369-1.103c0.68-0.064,1.189,0.118,1.344,0.827
		c0.131,0.6-0.168,1.115-0.718,1.256c-2.354,0.603-3.334,2.785-5.522,4.359c1.361,0,2.165,0.018,2.97-0.005
		c0.796-0.021,1.478,0.146,1.461,1.101c-0.019,0.974-0.744,1.04-1.514,1.038c-5.146-0.012-10.29-0.005-15.435-0.005
		c-1.537,0-3.075-0.023-4.613,0.008c-0.825,0.018-1.488-0.247-1.461-1.12c0.023-0.737,0.623-1.059,1.39-1.023
		c0.742,0.035,1.488,0.007,2.332,0.007c-0.736-1.41-2.163-0.441-3.063-1.249c-1.372-1.233-1.61,0.67-2.27,1.142
		c-1.441,1.025-2.785,2.182-4.447,2.849c-0.68,0.273-1.475,0.434-1.825-0.44c-0.324-0.808,0.168-1.249,0.922-1.606
		c3.831-1.817,6.564-4.708,8.22-8.612c1.22-2.879,2.664-5.642,4.236-8.34c0.436-0.75,0.904-1.696,2.024-1.183
		c1.138,0.522,0.698,1.548,0.409,2.323c-1.226,3.265-2.878,6.319-4.833,9.207c-0.537,0.793-0.983,1.589-0.779,2.632
		c0.805-0.218,1.084-0.891,1.438-1.475c1.227-2.014,2.426-4.045,3.663-6.052c0.406-0.657,0.899-1.391,1.828-0.898
		c0.923,0.488,0.613,1.252,0.261,1.985c-1,2.076-2.193,4.035-3.532,5.91c-0.334,0.468-0.825,0.856-0.834,1.647
		c0.97-0.062,1.574-0.717,2.2-1.267c1.56-1.369,2.929-2.921,4.165-4.587c0.493-0.665,1.089-1.278,1.901-0.71
		c0.966,0.672,0.353,1.443-0.138,2.127c-0.306,0.427-0.625,0.843-0.938,1.264c-0.079,0.092-0.159,0.186-0.237,0.277
		c-0.155,0.214-0.386,0.434-0.073,0.681c0.288,0.229,0.492,0.074,0.65-0.19C140.144,266.951,140.264,266.834,140.383,266.716z
		 M133.883,271.642c2.867,0,5.393,0.005,7.914-0.01c0.253,0,0.744,0.141,0.709-0.258c-0.162-1.815,1.369-3.024,1.733-4.836
		c-1.741,0.964-2.768,2.46-4.122,3.572c-1.112,0.911-2.342,1.309-3.585,0.7C135.366,270.239,134.864,270.901,133.883,271.642z
		 M139.143,267.788c-0.127-0.055-0.303-0.191-0.375-0.15c-0.184,0.108-0.332,0.285-0.457,0.461c-0.02,0.027,0.152,0.278,0.238,0.281
		C138.888,268.386,139.016,268.117,139.143,267.788z"/>
</g>
</svg>
